<svg width="512" height="168" viewBox="0 0 512 168" fill="none" xmlns="http://www.w3.org/2000/svg">
<path d="M511.4 144.7C511.4 157.2 501.3 167.3 488.8 167.3H22.6C10.1 167.3 0 157.2 0 144.7V22.6C0 10.1 10.1 0 22.6 0H488.9C501.4 0 511.5 10.1 511.5 22.6V144.7H511.4Z" fill="black"/>
<path d="M88.3 28.6H46.6C41.6 28.6 37.6 32.6 37.6 37.6V129.9C37.6 134.9 41.6 138.9 46.6 138.9H88.3C93.3 138.9 97.3 134.9 97.3 129.9V37.6C97.3 32.7 93.3 28.6 88.3 28.6ZM67.4 132.4C64.1 132.4 61.4 129.7 61.4 126.4C61.4 123.1 64.1 120.4 67.4 120.4C70.7 120.4 73.4 123.1 73.4 126.4C73.5 129.7 70.8 132.4 67.4 132.4ZM90.2 117.4H44.7V49.3H90.2V117.4Z" fill="white"/>
<path d="M131.4 45.1L128.9 52.8H125.6L133.9 28.4H137.7L146 52.8H142.6L140 45.1H131.4ZM139.4 42.6L137 35.6C136.5 34 136.1 32.6 135.8 31.2H135.7C135.4 32.6 135 34.1 134.5 35.6L132.1 42.7H139.4V42.6Z" fill="white"/>
<path d="M149.3 35.2L152.7 45C153.3 46.6 153.8 48.1 154.1 49.5H154.2C154.6 48.1 155.1 46.6 155.7 45L159.1 35.2H162.4L155.5 52.7H152.5L145.8 35.2H149.3Z" fill="white"/>
<path d="M177.1 48.6C177.1 50.1 177.2 51.6 177.4 52.8H174.5L174.2 50.6H174.1C173.2 52 171.2 53.2 168.7 53.2C165.2 53.2 163.3 50.7 163.3 48.2C163.3 44 167.1 41.7 173.8 41.7V41.3C173.8 39.9 173.4 37.2 169.8 37.3C168.1 37.3 166.4 37.8 165.2 38.6L164.5 36.5C165.9 35.6 168.1 35 170.3 35C175.7 35 177 38.7 177 42.2V48.6H177.1ZM174 43.8C170.5 43.7 166.6 44.3 166.6 47.7C166.6 49.8 168 50.7 169.6 50.7C171.9 50.7 173.4 49.3 173.9 47.8C174 47.5 174 47.1 174 46.8V43.8V43.8Z" fill="white"/>
<path d="M183.6 32C182.4 32 181.6 31.1 181.6 29.9C181.6 28.8 182.4 27.9 183.7 27.9C184.9 27.9 185.7 28.8 185.7 29.9C185.7 31.1 184.9 32 183.6 32ZM182.1 52.8V35.3H185.3V52.8H182.1Z" fill="white"/>
<path d="M190.3 27.1H193.5V52.8H190.3V27.1Z" fill="white"/>
<path d="M211 48.6C211 50.1 211.1 51.6 211.3 52.8H208.4L208.1 50.6H208C207.1 52 205.1 53.2 202.6 53.2C199.1 53.2 197.2 50.7 197.2 48.2C197.2 44 201 41.7 207.7 41.7V41.3C207.7 39.9 207.3 37.2 203.7 37.3C202 37.3 200.3 37.8 199.1 38.6L198.4 36.5C199.8 35.6 202 35 204.2 35C209.6 35 210.9 38.7 210.9 42.2V48.6H211ZM207.9 43.8C204.4 43.7 200.5 44.3 200.5 47.7C200.5 49.8 201.9 50.7 203.5 50.7C205.8 50.7 207.3 49.3 207.8 47.8C207.9 47.5 207.9 47.1 207.9 46.8V43.8V43.8Z" fill="white"/>
<path d="M215.9 27.1H219.1V38.1H219.2C220.3 36.1 222.3 34.9 225.2 34.9C229.5 34.9 232.6 38.5 232.6 43.8C232.6 50.1 228.6 53.2 224.7 53.2C222.2 53.2 220.2 52.2 218.8 49.9H218.7L218.5 52.8H215.8C215.9 51.6 215.9 49.8 215.9 48.3V27.1V27.1ZM219.1 45.7C219.1 46.1 219.1 46.5 219.2 46.9C219.8 49.1 221.7 50.6 224 50.6C227.4 50.6 229.3 47.9 229.3 43.9C229.3 40.4 227.5 37.4 224.1 37.4C221.9 37.4 219.9 38.9 219.3 41.3C219.2 41.7 219.1 42.1 219.1 42.6V45.7V45.7Z" fill="white"/>
<path d="M236.3 27.1H239.5V52.8H236.3V27.1Z" fill="white"/>
<path d="M246.4 44.5C246.5 48.8 249.2 50.6 252.4 50.6C254.7 50.6 256.1 50.2 257.2 49.7L257.8 51.9C256.7 52.4 254.7 53 251.9 53C246.5 53 243.3 49.4 243.3 44.2C243.3 38.9 246.4 34.7 251.6 34.7C257.3 34.7 258.8 39.7 258.8 42.9C258.8 43.6 258.8 44.1 258.7 44.4L246.4 44.5ZM255.7 42.3C255.7 40.3 254.9 37.1 251.3 37.1C248 37.1 246.7 40.1 246.4 42.3H255.7Z" fill="white"/>
<path d="M277.1 53.2C272.4 53.2 268.7 49.7 268.7 44.2C268.7 38.3 272.6 34.9 277.4 34.9C282.4 34.9 285.8 38.6 285.8 43.9C285.8 50.3 281.3 53.2 277.1 53.2ZM277.2 50.8C280.2 50.8 282.5 47.9 282.5 44C282.5 41 281 37.3 277.3 37.3C273.6 37.3 271.9 40.8 271.9 44.1C272 47.9 274.1 50.8 277.2 50.8Z" fill="white"/>
<path d="M289.7 40C289.7 38.2 289.7 36.7 289.5 35.3H292.3L292.5 38.2H292.6C293.5 36.6 295.5 34.9 298.4 34.9C300.8 34.9 304.6 36.3 304.6 42.4V52.9H301.4V42.8C301.4 40 300.4 37.6 297.3 37.6C295.2 37.6 293.6 39.1 293 40.9C292.9 41.3 292.8 41.9 292.8 42.4V53H289.6V40H289.7Z" fill="white"/>
<path d="M320.9 31V35.2H325.5V37.6H320.9V47C320.9 49.2 321.5 50.4 323.3 50.4C324.2 50.4 324.7 50.3 325.1 50.2L325.2 52.6C324.6 52.8 323.6 53 322.4 53C320.9 53 319.7 52.5 319 51.7C318.1 50.7 317.8 49.2 317.8 47.1V37.5H315.1V35.1H317.8V31.9L320.9 31Z" fill="white"/>
<path d="M328.9 27.1H332.1V38H332.2C332.7 37.1 333.5 36.3 334.5 35.8C335.4 35.2 336.6 34.9 337.8 34.9C340.1 34.9 343.9 36.3 343.9 42.4V52.8H340.7V42.7C340.7 39.8 339.6 37.5 336.6 37.5C334.5 37.5 332.9 38.9 332.3 40.7C332.1 41.1 332.1 41.6 332.1 42.2V52.8H328.9V27.1V27.1Z" fill="white"/>
<path d="M350.6 44.5C350.7 48.8 353.4 50.6 356.6 50.6C358.9 50.6 360.3 50.2 361.5 49.7L362.1 51.9C361 52.4 359 53 356.2 53C350.8 53 347.6 49.4 347.6 44.2C347.6 38.9 350.7 34.7 355.9 34.7C361.6 34.7 363.1 39.7 363.1 42.9C363.1 43.6 363.1 44.1 363 44.4L350.6 44.5ZM359.9 42.3C359.9 40.3 359.1 37.1 355.5 37.1C352.2 37.1 350.9 40.1 350.6 42.3H359.9Z" fill="white"/>
<path d="M375.7 32C374.5 32 373.7 31.1 373.7 29.9C373.7 28.8 374.5 27.9 375.8 27.9C377 27.9 377.8 28.8 377.8 29.9C377.8 31.1 377 32 375.7 32ZM374.2 52.8V35.3H377.4V52.8H374.2Z" fill="white"/>
<path d="M382.6 28.7C384.1 28.4 386.1 28.2 388.6 28.2C391.7 28.2 394 28.9 395.4 30.2C396.7 31.4 397.6 33.1 397.6 35.3C397.6 37.5 396.9 39.2 395.7 40.5C394 42.3 391.3 43.2 388.2 43.2C387.3 43.2 386.4 43.2 385.7 43V52.8H382.6V28.7ZM385.7 40.4C386.4 40.6 387.3 40.7 388.3 40.7C392.1 40.7 394.4 38.8 394.4 35.5C394.4 32.2 392.1 30.7 388.6 30.7C387.2 30.7 386.2 30.8 385.6 31V40.4H385.7Z" fill="white"/>
<path d="M401.4 27.1H404.6V38H404.7C405.2 37.1 406 36.3 407 35.8C407.9 35.2 409.1 34.9 410.3 34.9C412.7 34.9 416.4 36.3 416.4 42.4V52.8H413.2V42.7C413.2 39.8 412.1 37.5 409.1 37.5C407 37.5 405.4 38.9 404.8 40.7C404.6 41.1 404.6 41.6 404.6 42.2V52.8H401.4V27.1Z" fill="white"/>
<path d="M428.4 53.2C423.7 53.2 420 49.7 420 44.2C420 38.3 423.9 34.9 428.7 34.9C433.7 34.9 437.1 38.6 437.1 43.9C437.1 50.3 432.6 53.2 428.4 53.2ZM428.5 50.8C431.5 50.8 433.8 47.9 433.8 44C433.8 41 432.3 37.3 428.6 37.3C424.9 37.3 423.2 40.8 423.2 44.1C423.2 47.9 425.4 50.8 428.5 50.8Z" fill="white"/>
<path d="M440.9 40C440.9 38.2 440.9 36.7 440.8 35.3H443.6L443.8 38.2H443.9C444.8 36.6 446.8 34.9 449.7 34.9C452.1 34.9 455.9 36.3 455.9 42.4V52.9H452.7V42.8C452.7 40 451.6 37.6 448.6 37.6C446.5 37.6 444.9 39.1 444.3 40.9C444.2 41.3 444.1 41.9 444.1 42.4V53H440.9V40V40Z" fill="white"/>
<path d="M462.6 44.5C462.7 48.8 465.4 50.6 468.6 50.6C470.9 50.6 472.3 50.2 473.4 49.7L474 51.9C472.9 52.4 470.9 53 468.1 53C462.7 53 459.5 49.4 459.5 44.2C459.5 38.9 462.6 34.7 467.7 34.7C473.4 34.7 474.9 39.7 474.9 42.9C474.9 43.6 474.9 44.1 474.8 44.4L462.6 44.5ZM471.9 42.3C471.9 40.3 471.1 37.1 467.5 37.1C464.2 37.1 462.9 40.1 462.6 42.3H471.9Z" fill="white"/>
<path d="M146.4 69.3L125 132.4H134.8L141.2 113H162L168.6 132.4H178.7L157.2 69.3H146.4ZM151.5 79.7C152.2 82.5 153 85.4 154 88.6L159.8 105.3H143.3L149 88.4C149.9 85.7 150.8 82.8 151.5 79.7Z" fill="white"/>
<path d="M206.4 85.6C199.9 85.6 194.7 88.1 191.2 92.9L190.8 86.6H182.1L182.2 87.4C182.5 91.3 182.6 95.6 182.6 101.8V150.5H192.2V127.8C195.2 131.3 199.9 133.4 205.3 133.4C210.9 133.4 216 131.2 219.8 127.2C224 122.8 226.2 116.4 226.2 108.8C226.2 102.1 224.3 96.3 220.6 92C216.9 87.9 211.9 85.6 206.4 85.6ZM204 93.5C212.5 93.5 216.3 101.4 216.3 109.2C216.3 119.3 211.4 125.5 203.6 125.5C198.3 125.5 193.6 121.9 192.3 116.6C192.1 115.8 192 114.7 192 113.5V105.8C192 105.1 192.2 104.3 192.3 103.4C192.3 103.1 192.4 102.9 192.4 102.6C193.9 97.4 198.7 93.5 204 93.5Z" fill="white"/>
<path d="M255.6 85.6C249.1 85.6 243.9 88.1 240.4 92.9L240 86.6H231.3V87.4C231.6 91.3 231.7 95.6 231.7 101.8V150.5H241.3V127.8C244.3 131.3 249 133.4 254.4 133.4C260 133.4 265.1 131.2 268.9 127.2C273.1 122.8 275.3 116.4 275.3 108.8C275.3 102.1 273.4 96.3 269.7 92C266.1 87.9 261.1 85.6 255.6 85.6ZM253.2 93.5C261.7 93.5 265.5 101.4 265.5 109.2C265.5 119.3 260.6 125.5 252.8 125.5C247.5 125.5 242.8 121.9 241.5 116.6C241.3 115.8 241.2 114.7 241.2 113.5V105.8C241.2 105.1 241.4 104.3 241.5 103.4C241.5 103.1 241.6 102.9 241.6 102.6C243.1 97.4 247.9 93.5 253.2 93.5Z" fill="white"/>
<path d="M317.2 96C308.3 92.5 305.4 89.8 305.4 84.8C305.4 80.6 308.8 76.3 316.3 76.3C322.5 76.3 326.5 78.5 327.5 79.1L328.3 79.6L331 71.6L330.5 71.3C328.9 70.4 324.3 68.2 316.6 68.2C304.4 68.2 295.9 75.4 295.9 85.7C295.9 94 301.2 99.8 312.7 104C320.8 107 323.8 110.1 323.8 115.5C323.8 121.5 319.1 125.3 311.7 125.3C306.8 125.3 301.8 123.9 297.9 121.4L297.1 120.9L294.5 129.1L295 129.4C298.6 131.8 305.4 133.6 311.1 133.6C327.5 133.6 333.3 123.6 333.3 115C333.4 106 328.7 100.5 317.2 96Z" fill="white"/>
<path d="M350.6 75.8L341.2 78.7V86.6H334.3V94.2H341.2V117.6C341.2 123.3 342.3 127.2 344.5 129.7C346.6 132 349.9 133.3 353.7 133.3C357.3 133.3 359.9 132.6 361.1 132.2L361.6 132L361.1 124.4L360.2 124.7C359 125.1 357.8 125.2 355.8 125.2C352.1 125.2 350.5 122.9 350.5 117.4V94.3H362V86.7H350.5V75.8H350.6Z" fill="white"/>
<path d="M385.8 85.6C372.4 85.6 363.1 95.6 363.1 109.9C363.1 123.8 372.1 133.4 385.1 133.4H385.2C396.1 133.4 407.9 125.8 407.9 109.1C407.9 102.3 405.8 96.5 401.8 92.2C397.7 87.9 392.2 85.6 385.8 85.6ZM385.5 93.2C394.1 93.2 398 101.6 398 109.4C398 119 392.7 125.9 385.3 125.9H385.2C378 125.9 372.7 119.1 372.7 109.6C372.7 101.4 376.7 93.2 385.5 93.2Z" fill="white"/>
<path d="M437.1 86.1L436.5 86C435.7 85.8 435 85.7 434.1 85.7C429.1 85.7 424.6 88.6 422.1 93.4L421.8 86.7H413.3L413.4 87.5C413.7 91.3 413.8 95.5 413.8 101.3L413.7 132.5H423.3V108.2C423.3 106.9 423.4 105.6 423.6 104.5C424.7 98.7 428.6 94.9 433.7 94.9C434.7 94.9 435.4 95 436.3 95.1L437.3 95.2V86.1H437.1Z" fill="white"/>
<path d="M458.6 85.5C445.9 85.5 437 95.7 437 110.2C437 124.2 445.8 133.3 459.5 133.3C466.7 133.3 471.7 131.7 474.6 130.4L475.2 130.1L473.4 123L472.6 123.3C470 124.4 466.5 125.4 460.6 125.4C456.4 125.4 446.9 124 446.3 111.5L477.1 111.6L477.2 111C477.4 110 477.5 108.7 477.5 107C477.5 97.2 472.5 85.5 458.6 85.5ZM457.9 92.8C460.8 92.8 463.2 93.7 464.9 95.5C467.6 98.3 468.1 102.4 468.2 104.4H446.4C447.3 98.9 450.8 92.8 457.9 92.8Z" fill="white"/>
</svg>
