<svg width="512" height="168" viewBox="0 0 512 168" fill="none" xmlns="http://www.w3.org/2000/svg">
<path d="M511.4 144.7C511.4 157.2 501.3 167.3 488.8 167.3H22.6C10.1 167.3 0 157.2 0 144.7V22.6C0 10.1 10.1 0 22.6 0H488.9C501.4 0 511.5 10.1 511.5 22.6V144.7H511.4Z" fill="black"/>
<path d="M398 111C395.9 111 393.9 110.6 392.1 109.8C390.3 109 388.8 107.8 387.6 106.1H387.3C387.5 108 387.7 109.8 387.7 111.6V125.2H382.7V77.5H386.8L387.5 82H387.7C389 80.2 390.5 78.9 392.2 78.1C393.9 77.3 395.9 76.9 398.1 76.9C402.5 76.9 405.8 78.4 408.2 81.4C410.6 84.4 411.8 88.6 411.8 94C411.8 99.4 410.6 103.6 408.2 106.6C405.6 109.5 402.3 111 398 111ZM397.3 81.1C393.9 81.1 391.5 82 390 83.9C388.5 85.8 387.7 88.7 387.7 92.8V93.9C387.7 98.5 388.5 101.8 390 103.8C391.5 105.8 394 106.8 397.4 106.8C400.2 106.8 402.5 105.6 404.1 103.3C405.7 101 406.5 97.8 406.5 93.8C406.5 89.7 405.7 86.5 404.1 84.3C402.5 82.2 400.2 81.1 397.3 81.1Z" fill="#F9F9F9"/>
<path d="M423.2 110.4H418.2V63.6H423.2V110.4Z" fill="#F9F9F9"/>
<path d="M451.9 110.4L450.9 105.7H450.7C449.1 107.8 447.4 109.2 445.8 109.9C444.2 110.6 442.1 111 439.7 111C436.4 111 433.9 110.2 432 108.5C430.1 106.8 429.2 104.4 429.2 101.3C429.2 94.6 434.5 91.2 445.2 90.8L450.8 90.6V88.6C450.8 86 450.2 84.1 449.1 82.9C448 81.7 446.2 81.1 443.8 81.1C441.1 81.1 437.9 81.9 434.5 83.6L433 79.8C434.6 78.9 436.4 78.2 438.3 77.7C440.2 77.2 442.2 76.9 444.1 76.9C448 76.9 450.9 77.8 452.8 79.5C454.7 81.2 455.6 84 455.6 87.9V110.4H451.9ZM440.7 106.9C443.8 106.9 446.2 106 448 104.3C449.8 102.6 450.7 100.2 450.7 97.1V94.1L445.7 94.3C441.7 94.4 438.9 95.1 437.1 96.2C435.3 97.3 434.5 99 434.5 101.3C434.5 103.1 435 104.5 436.1 105.4C437.2 106.4 438.7 106.9 440.7 106.9Z" fill="#F9F9F9"/>
<path d="M458.5 77.4H463.8L471 96.2C472.6 100.5 473.6 103.6 473.9 105.5H474.1C474.4 104.5 474.9 102.7 475.7 100.3C476.5 97.8 479.3 90.2 483.9 77.5H489.3L475.3 115C473.9 118.7 472.3 121.3 470.4 122.9C468.5 124.5 466.2 125.2 463.5 125.2C462 125.2 460.5 125 459 124.7V120.7C460.1 120.9 461.3 121.1 462.7 121.1C466.1 121.1 468.6 119.2 470 115.3L471.8 110.6L458.5 77.4Z" fill="#F9F9F9"/>
<path d="M305.6 80.5C307.2 81.8 310.5 84.6 310.5 89.8C310.5 94.9 307.6 97.3 304.7 99.6C303.8 100.5 302.8 101.5 302.8 103C302.8 104.5 303.8 105.3 304.6 106L307.1 107.9C310.1 110.5 312.9 112.8 312.9 117.6C312.9 124.1 306.6 130.6 294.8 130.6C284.8 130.6 280 125.8 280 120.7C280 118.2 281.2 114.7 285.3 112.3C289.6 109.7 295.4 109.3 298.5 109.1C297.5 107.9 296.4 106.6 296.4 104.4C296.4 103.2 296.7 102.5 297.1 101.7C296.3 101.8 295.6 101.8 294.9 101.8C287.6 101.8 283.5 96.4 283.5 91C283.5 87.8 284.9 84.3 287.9 81.8C291.8 78.6 296.5 78 300.2 78H314.4L310 80.5H305.6V80.5ZM300.7 111.1C300.1 111 299.8 111 299.1 111C298.5 111 294.8 111.1 291.9 112.1C290.4 112.6 286 114.3 286 119.2C286 124.1 290.8 127.6 298.1 127.6C304.7 127.6 308.2 124.4 308.2 120.2C308.2 116.7 305.9 114.8 300.7 111.1ZM302.7 98C304.3 96.4 304.4 94.2 304.4 93C304.4 88 301.4 80.3 295.7 80.3C293.9 80.3 292 81.2 290.9 82.6C289.7 84 289.4 85.9 289.4 87.7C289.4 92.3 292.1 100 298 100C299.7 99.9 301.5 99.1 302.7 98Z" fill="#F9F9F9"/>
<path d="M262.2 110C251.3 110 245.4 101.5 245.4 93.8C245.4 84.8 252.8 77.1 263.2 77.1C273.3 77.1 279.6 85 279.6 93.3C279.6 101.4 273.4 110 262.2 110ZM270.8 104.4C272.5 102.2 272.9 99.4 272.9 96.8C272.9 90.7 270 79.2 261.5 79.2C259.2 79.2 257 80.1 255.3 81.5C252.6 83.9 252.1 86.9 252.1 89.9C252.1 96.7 255.5 107.9 263.8 107.9C266.4 107.9 269.2 106.6 270.8 104.4Z" fill="#F9F9F9"/>
<path d="M224.9 110C214 110 208.1 101.5 208.1 93.8C208.1 84.8 215.5 77.1 225.9 77.1C236 77.1 242.3 85 242.3 93.3C242.3 101.4 236.1 110 224.9 110ZM233.5 104.4C235.2 102.2 235.6 99.4 235.6 96.8C235.6 90.7 232.7 79.2 224.2 79.2C221.9 79.2 219.7 80.1 218 81.5C215.3 83.9 214.8 86.9 214.8 89.9C214.8 96.7 218.2 107.9 226.5 107.9C229.1 107.9 231.9 106.6 233.5 104.4Z" fill="#F9F9F9"/>
<path d="M202.8 108.9L192.9 111.2C188.9 111.8 185.3 112.4 181.5 112.4C162.4 112.4 155.1 98.4 155.1 87.4C155.1 74 165.4 61.5 183 61.5C186.7 61.5 190.3 62.1 193.6 63C198.8 64.5 201.2 66.3 202.7 67.3L197 72.8L194.6 73.4L196.3 70.6C193.9 68.3 189.7 64.1 181.5 64.1C170.6 64.1 162.3 72.4 162.3 84.5C162.3 97.5 171.7 109.7 186.8 109.7C191.2 109.7 193.5 108.8 195.6 108V96.9L185.2 97.5L190.7 94.5H205.4L203.6 96.2C203.1 96.6 203 96.8 202.9 97.3C202.8 97.9 202.8 99.9 202.8 100.6V108.9V108.9Z" fill="#F9F9F9"/>
<path d="M327.4 106.9C325.1 106.7 324.6 106.3 324.6 103.6V102.8V64.4C324.6 64.3 324.6 64.1 324.6 64C324.9 61.6 325.6 61.2 327.7 59.9H317.8L312.6 62.4H317.9V102.8V105.1C317.9 106.5 317.6 106.7 316 108.8H328.2L330.8 107.3C329.8 107.1 328.6 107.1 327.4 106.9Z" fill="#F9F9F9"/>
<path d="M355.6 107.6C354.8 108 354.1 108.5 353.3 108.8C351 109.8 348.7 110.1 346.6 110.1C344.4 110.1 341 110 337.5 107.4C332.6 104 330.5 98.1 330.5 92.9C330.5 82.3 339.2 77 346.2 77C348.7 77 351.2 77.6 353.3 78.9C356.7 81.2 357.6 84.1 358.1 85.7L342 92.2L336.7 92.6C338.4 101.3 344.3 106.4 350.9 106.4C354.4 106.4 356.9 105.2 359.3 104L355.6 107.6ZM349.1 87.1C350.4 86.6 351.1 86.2 351.1 85.2C351.1 82.5 348 79.3 344.3 79.3C341.5 79.3 336.4 81.4 336.4 88.8C336.4 90 336.5 91.2 336.6 92.4L349.1 87.1Z" fill="#F9F9F9"/>
<path d="M362.2 77.5V82H361.6V77.5H360.1V77H363.6V77.5H362.2Z" fill="#F9F9F9"/>
<path d="M368.4 82.1V77.5L367 82.1H366.6L365.2 77.5V82.1H364.7V77.1H365.6L366.9 81.1L368.2 77.1H369.1V82.1H368.4Z" fill="#F9F9F9"/>
<path d="M168.9 48H165.5C165.5 47.5 165.2 46.2 164.5 44H159.5C158.8 46.2 158.5 47.5 158.5 48H155.3C155.3 47.7 156.1 45.4 157.8 41.1C159.5 36.8 160.3 34.4 160.3 34H164.4C164.4 34.4 165.2 36.7 166.7 41C168.1 45.3 168.9 47.6 168.9 48ZM163.9 41.9C162.7 38.2 162.1 36.2 162.1 35.9H161.9C161.9 36.2 161.3 38.2 160 41.9H163.9Z" fill="#F9F9FA"/>
<path d="M182.7 48H180C180 47.7 179 46.2 177 43.3C174.9 40.3 173.8 38.3 173.5 37.2H173.3C173.5 38.8 173.6 40.2 173.6 41.5C173.6 43.3 173.6 45.4 173.8 48H171.2C171.3 45.8 171.4 43.3 171.4 40.7C171.4 38.1 171.3 35.9 171.2 34H174.4C174.4 34.4 175.3 35.9 177.1 38.5C179 41.3 180.1 43.2 180.3 44.2H180.5C180.3 42.6 180.2 41.2 180.2 39.9C180.2 38 180.1 36 180 33.9H182.7C182.6 35.7 182.5 37.9 182.5 40.6C182.6 43.4 182.6 45.8 182.7 48Z" fill="#F9F9FA"/>
<path d="M198.3 40.5C198.3 42.5 197.6 44.3 196.3 45.8C195 47.3 193.2 48.1 190.8 48.1C189.7 48.1 188.3 48.1 186.4 48C186.5 45.8 186.5 43.4 186.5 40.7C186.5 38.1 186.5 35.9 186.4 34H188.3C188.6 34 189.1 34 189.7 34C190.3 34 190.7 34 190.9 34C193.5 34 195.4 34.6 196.5 35.9C197.7 37.2 198.3 38.7 198.3 40.5ZM195.4 41C195.4 39.6 195 38.5 194.2 37.5C193.4 36.6 192.2 36.1 190.5 36.1C190.2 36.1 189.8 36.1 189.2 36.2C189.3 37.6 189.3 39.1 189.3 40.7C189.3 42.4 189.3 44.1 189.4 45.8C189.9 45.9 190.3 45.9 190.8 45.9C192.3 45.9 193.5 45.4 194.2 44.5C195 43.5 195.4 42.3 195.4 41Z" fill="#F9F9FA"/>
<path d="M212.7 48H209.5C208.7 45.5 208 43.9 207.6 43.3C207.2 42.7 206.4 42.4 205.5 42.4C205.1 42.4 204.7 42.4 204.3 42.4C204.3 44.2 204.3 46.1 204.4 48H201.4C201.5 45.8 201.5 43.4 201.5 40.7C201.5 38.1 201.5 35.9 201.4 34H203.3C203.5 34 204 34 204.6 34C205.3 34 205.9 34 206.5 34C209.8 34 211.4 35.1 211.4 37.4C211.4 39.2 210.5 40.4 208.6 41.1V41.3C209.3 41.5 210 42.1 210.5 43C211 43.8 211.7 45.5 212.7 48ZM208.6 38.1C208.6 36.7 207.7 36 205.8 36C205.1 36 204.5 36 204 36.2C204.1 37.3 204.1 38.8 204.1 40.5C204.5 40.5 204.8 40.5 205.1 40.5C207.5 40.5 208.6 39.7 208.6 38.1Z" fill="#F9F9FA"/>
<path d="M228.1 40.7C228.1 42.9 227.4 44.7 226.1 46.2C224.8 47.6 223.1 48.4 221.1 48.4C219.2 48.4 217.6 47.7 216.4 46.4C215.1 45.1 214.5 43.4 214.5 41.3C214.5 39.1 215.2 37.3 216.5 35.8C217.8 34.4 219.5 33.6 221.5 33.6C223.4 33.6 225 34.3 226.2 35.6C227.4 37 228.1 38.7 228.1 40.7ZM225.1 41C225.1 39.5 224.7 38.3 224 37.4C223.2 36.5 222.3 36 221.2 36C220.2 36 219.3 36.5 218.5 37.4C217.8 38.3 217.4 39.5 217.4 41C217.4 42.5 217.8 43.7 218.6 44.6C219.4 45.5 220.3 46 221.4 46C222.4 46 223.3 45.5 224.1 44.6C224.7 43.7 225.1 42.5 225.1 41Z" fill="#F9F9FA"/>
<path d="M234.1 48H231.1C231.2 45.8 231.2 43.3 231.2 40.7C231.2 38.1 231.2 35.9 231.1 34H234.1C234 35.8 234 38 234 40.7C234 43.4 234.1 45.8 234.1 48Z" fill="#F9F9FA"/>
<path d="M249.7 40.5C249.7 42.5 249 44.3 247.7 45.8C246.4 47.3 244.6 48.1 242.2 48.1C241.1 48.1 239.7 48.1 237.8 48C237.9 45.8 237.9 43.4 237.9 40.7C237.9 38.1 237.9 35.9 237.8 34H239.7C240 34 240.5 34 241.1 34C241.7 34 242.1 34 242.3 34C244.9 34 246.8 34.6 247.9 35.9C249.1 37.2 249.7 38.7 249.7 40.5ZM246.8 41C246.8 39.6 246.4 38.5 245.6 37.5C244.8 36.6 243.6 36.1 241.9 36.1C241.6 36.1 241.2 36.1 240.6 36.2C240.7 37.6 240.7 39.1 240.7 40.7C240.7 42.4 240.7 44.1 240.8 45.8C241.3 45.9 241.7 45.9 242.2 45.9C243.7 45.9 244.9 45.4 245.6 44.5C246.4 43.5 246.8 42.3 246.8 41Z" fill="#F9F9FA"/>
<path d="M270.4 48H267C267 47.5 266.7 46.2 266 44H261C260.3 46.2 260 47.5 260 48H256.8C256.8 47.7 257.6 45.4 259.3 41.1C261 36.8 261.8 34.4 261.8 34H265.9C265.9 34.4 266.7 36.7 268.2 41C269.6 45.3 270.4 47.6 270.4 48ZM265.4 41.9C264.2 38.2 263.6 36.2 263.6 35.9H263.4C263.4 36.2 262.8 38.2 261.5 41.9H265.4Z" fill="#F9F9FA"/>
<path d="M282.9 37.7C282.9 39.4 282.3 40.7 281 41.5C279.7 42.3 278.2 42.7 276.3 42.7C276 42.7 275.7 42.7 275.6 42.7C275.6 44 275.6 45.8 275.7 48H272.7C272.8 45.9 272.8 43.5 272.8 40.7C272.8 38.1 272.8 35.9 272.7 34H274.6C274.9 34 275.4 34 276.1 34C276.9 34 277.5 34 278.1 34C279.5 34 280.6 34.3 281.5 34.9C282.4 35.5 282.9 36.4 282.9 37.7ZM280.1 38.3C280.1 36.8 279.1 36 277 36C276.5 36 276 36.1 275.4 36.2C275.5 37.6 275.5 39.1 275.5 40.8C275.7 40.8 275.9 40.8 276.1 40.8C278.8 40.7 280.1 39.9 280.1 38.3Z" fill="#F9F9FA"/>
<path d="M295.8 37.7C295.8 39.4 295.2 40.7 293.9 41.5C292.6 42.3 291.1 42.7 289.2 42.7C288.9 42.7 288.6 42.7 288.5 42.7C288.5 44 288.5 45.8 288.6 48H285.6C285.7 45.9 285.7 43.5 285.7 40.7C285.7 38.1 285.7 35.9 285.6 34H287.5C287.8 34 288.3 34 289 34C289.8 34 290.4 34 291 34C292.4 34 293.5 34.3 294.4 34.9C295.3 35.5 295.8 36.4 295.8 37.7ZM293 38.3C293 36.8 292 36 289.9 36C289.4 36 288.9 36.1 288.3 36.2C288.4 37.6 288.4 39.1 288.4 40.8C288.6 40.8 288.8 40.8 289 40.8C291.7 40.7 293 39.9 293 38.3Z" fill="#F9F9FA"/>
<path d="M316.8 40.7C316.8 42.9 316.1 44.7 314.8 46.2C313.5 47.6 311.8 48.4 309.8 48.4C307.9 48.4 306.3 47.7 305.1 46.4C303.8 45.1 303.2 43.4 303.2 41.3C303.2 39.1 303.9 37.3 305.2 35.8C306.5 34.4 308.2 33.6 310.2 33.6C312.1 33.6 313.7 34.3 314.9 35.6C316.2 37 316.8 38.7 316.8 40.7ZM313.9 41C313.9 39.5 313.5 38.3 312.8 37.4C312 36.5 311.1 36 310 36C309 36 308.1 36.5 307.3 37.4C306.6 38.3 306.2 39.5 306.2 41C306.2 42.5 306.6 43.7 307.4 44.6C308.2 45.5 309.1 46 310.2 46C311.2 46 312.1 45.5 312.9 44.6C313.5 43.7 313.9 42.5 313.9 41Z" fill="#F9F9FA"/>
<path d="M331.4 48H328.7C328.7 47.7 327.7 46.2 325.7 43.3C323.6 40.3 322.5 38.3 322.2 37.2H322C322.2 38.8 322.3 40.2 322.3 41.5C322.3 43.3 322.3 45.4 322.5 48H319.9C320 45.8 320.1 43.3 320.1 40.7C320.1 38.1 320 35.9 319.9 34H323.1C323.1 34.4 324 35.9 325.8 38.5C327.7 41.3 328.8 43.2 329 44.2H329.2C329 42.6 328.9 41.2 328.9 39.9C328.9 38 328.9 36 328.7 33.9H331.4C331.3 35.7 331.2 37.9 331.2 40.6C331.3 43.4 331.3 45.8 331.4 48Z" fill="#F9F9FA"/>
<path d="M40.3 34.2L40.2 34.1C40.1 34.1 39.9 34.2 39.8 34.2H40.3Z" fill="#267DB0"/>
<path d="M41.3 35.2L41.1 35L40.5 34.4L40.2 34.1H39.7C39.3 34.3 38.9 34.6 38.6 35.1H41.3V35.2Z" fill="#287EB0"/>
<path d="M42.4 36.2L41.8 35.6L41.4 35.2H38.8C38.6 35.5 38.5 35.8 38.5 36.2H42.4Z" fill="#297EB0"/>
<path d="M43.4 37.2L42.9 36.7L42.3 36.1H38.3C38.3 36.4 38.2 36.6 38.2 36.9C38.2 36.9 38.2 37 38.2 37.1H43.4V37.2Z" fill="#2A7FB1"/>
<path d="M44.4 38.2L44.1 37.9L43.5 37.3L43.4 37.2H38.3C38.3 37.5 38.3 37.8 38.3 38.2H44.4V38.2Z" fill="#2C80B1"/>
<path d="M45.4 39.2L45.2 39L44.6 38.4L44.3 38.1H38.3C38.3 38.4 38.3 38.7 38.3 39.1H45.4V39.2Z" fill="#2D80B1"/>
<path d="M46.4 40.2L45.8 39.6L45.4 39.2H38.3C38.3 39.5 38.3 39.8 38.3 40.2H46.4Z" fill="#2E81B1"/>
<path d="M47.4 41.2L46.9 40.7L46.4 40.2H38.3C38.3 40.5 38.3 40.9 38.3 41.2H47.4Z" fill="#3082B1"/>
<path d="M48.4 42.2L48.1 41.9L47.5 41.3L47.4 41.2H38.3C38.3 41.5 38.3 41.9 38.3 42.2H48.4V42.2Z" fill="#3183B1"/>
<path d="M49.4 43.2L49.2 43L48.6 42.4L48.4 42.2H38.3C38.3 42.5 38.3 42.9 38.3 43.2H49.4Z" fill="#3283B2"/>
<path d="M50.4 44.2L49.8 43.6L49.4 43.2H38.3C38.3 43.5 38.3 43.9 38.3 44.2H50.4Z" fill="#3384B2"/>
<path d="M51.5 45.2L51 44.7L50.5 44.2H38.3C38.3 44.5 38.3 44.9 38.3 45.2H51.5Z" fill="#3485B2"/>
<path d="M52.5 46.2L52.1 45.9L51.5 45.3L51.4 45.2H38.3C38.3 45.5 38.3 45.9 38.3 46.2H52.5V46.2Z" fill="#3685B2"/>
<path d="M53.5 47.2L53.3 47L52.7 46.4L52.5 46.2H38.3C38.3 46.5 38.3 46.9 38.3 47.2H53.5Z" fill="#3786B2"/>
<path d="M54.5 48.2L53.9 47.6L53.5 47.2H38.3C38.3 47.5 38.3 47.9 38.3 48.2H54.5Z" fill="#3887B2"/>
<path d="M55.5 49.2L55 48.7L54.5 48.2H38.3C38.3 48.5 38.3 48.9 38.3 49.2H55.5Z" fill="#3988B3"/>
<path d="M56.5 50.2L56.1 49.8L55.5 49.2L55.4 49.1H38.3C38.3 49.4 38.3 49.8 38.3 50.1H56.5V50.2Z" fill="#3A88B3"/>
<path d="M57.5 51.2L57.3 51L56.7 50.4L56.5 50.2H38.3C38.3 50.5 38.3 50.9 38.3 51.2H57.5Z" fill="#3B89B3"/>
<path d="M58.5 52.2L57.8 51.5L57.5 51.2H38.3C38.3 51.5 38.3 51.9 38.3 52.2H58.5Z" fill="#3C8AB3"/>
<path d="M59.5 53.2L59 52.7L58.5 52.2H38.3C38.3 52.5 38.3 52.9 38.3 53.2H59.5Z" fill="#3D8AB3"/>
<path d="M60.6 54.2L60.2 53.8L59.6 53.2H38.3C38.3 53.5 38.3 53.9 38.3 54.2H60.6Z" fill="#3E8BB4"/>
<path d="M61.6 55.2L61.4 55L60.8 54.4L60.6 54.2H38.3C38.3 54.5 38.3 54.9 38.3 55.2H61.6Z" fill="#408CB4"/>
<path d="M62.6 56.2L62.5 56.1L61.9 55.5L61.6 55.2H38.3C38.3 55.5 38.3 55.9 38.3 56.2H62.6V56.2Z" fill="#418DB4"/>
<path d="M63.6 57.3L63.1 56.8L62.6 56.3H38.3C38.3 56.6 38.3 57 38.3 57.3H63.6Z" fill="#428DB4"/>
<path d="M64.6 58.3L64.2 57.9L63.6 57.3H38.3C38.3 57.6 38.3 58 38.3 58.3H64.6Z" fill="#438EB4"/>
<path d="M65.6 59.3L65.3 59L64.7 58.4L64.5 58.2H38.3C38.3 58.5 38.3 58.9 38.3 59.2H65.6V59.3Z" fill="#448FB4"/>
<path d="M66.6 60.3L66.5 60.2L65.9 59.6L65.6 59.3H38.3C38.3 59.6 38.3 60 38.3 60.3H66.6V60.3Z" fill="#4590B4"/>
<path d="M67.6 61.3L67 60.7L66.6 60.3H38.3C38.3 60.6 38.3 61 38.3 61.3H67.6Z" fill="#4690B5"/>
<path d="M68.6 62.3L68.2 61.9L67.6 61.3H38.3C38.3 61.6 38.3 62 38.3 62.3H68.6Z" fill="#4791B5"/>
<path d="M69.7 63.3L69.4 63L68.8 62.4L68.6 62.2H38.3C38.3 62.5 38.3 62.9 38.3 63.2H69.7V63.3Z" fill="#4892B5"/>
<path d="M70.7 64.3L70.6 64.2L70 63.6L69.7 63.3H38.3C38.3 63.6 38.3 64 38.3 64.3H70.7V64.3Z" fill="#4993B5"/>
<path d="M71.7 65.3L71.1 64.7L70.7 64.3H38.3C38.3 64.6 38.3 65 38.3 65.3H71.7Z" fill="#4A93B5"/>
<path d="M72.7 66.3L72.3 65.9L71.7 65.3H38.3C38.3 65.6 38.3 66 38.3 66.3H72.7Z" fill="#4B94B5"/>
<path d="M73.7 67.3L73.4 67L72.8 66.4L72.7 66.3H38.3C38.3 66.6 38.3 67 38.3 67.3H73.7V67.3Z" fill="#4C95B6"/>
<path d="M74.7 68.3L74.5 68.1L73.9 67.5L73.6 67.2H38.3C38.3 67.5 38.3 67.9 38.3 68.2H74.7V68.3Z" fill="#4D96B6"/>
<path d="M75.7 69.3L75.1 68.7L74.7 68.3H38.3C38.3 68.6 38.3 69 38.3 69.3H75.7Z" fill="#4E96B6"/>
<path d="M76.7 70.3L76.2 69.8L75.6 69.3H38.3C38.3 69.6 38.3 70 38.3 70.3H76.7Z" fill="#4F97B6"/>
<path d="M77.7 71.3L77.4 71L76.8 70.4L76.7 70.3H38.3C38.3 70.6 38.3 71 38.3 71.3H77.7V71.3Z" fill="#5098B6"/>
<path d="M78.8 72.3L78.6 72.1L78 71.5L77.7 71.2H38.3C38.3 71.5 38.3 71.9 38.3 72.2H78.8V72.3Z" fill="#5099B6"/>
<path d="M79.8 73.3L79.2 72.7L78.8 72.3H38.3C38.3 72.6 38.3 73 38.3 73.3H79.8Z" fill="#5199B7"/>
<path d="M80.8 74.3L80.3 73.8L79.8 73.3H38.3C38.3 73.6 38.3 74 38.3 74.3H80.8Z" fill="#529AB7"/>
<path d="M81.8 75.3L81.5 75L80.9 74.4L80.8 74.3H38.3C38.3 74.6 38.3 75 38.3 75.3H81.8V75.3Z" fill="#539BB7"/>
<path d="M82.8 76.3L82.6 76.1L82 75.5L81.8 75.3H38.3C38.3 75.6 38.3 76 38.3 76.3H82.8Z" fill="#549CB7"/>
<path d="M83.8 77.3L83.2 76.7L82.8 76.3H38.3C38.3 76.6 38.3 77 38.3 77.3H83.8Z" fill="#559CB7"/>
<path d="M84.8 78.3L84.3 77.8L83.8 77.3H38.3C38.3 77.6 38.3 78 38.3 78.3H84.8Z" fill="#569DB7"/>
<path d="M85.8 79.3L85.4 78.9L84.8 78.3L84.7 78.2H38.3C38.3 78.5 38.3 78.9 38.3 79.2H85.8V79.3Z" fill="#579EB7"/>
<path d="M86.8 80.3L86.6 80.1L86 79.5L85.8 79.3H38.3C38.3 79.6 38.3 80 38.3 80.3H86.8Z" fill="#589FB8"/>
<path d="M87.9 81.3L87.2 80.7L86.8 80.3H38.3C38.3 80.6 38.3 81 38.3 81.3H87.9Z" fill="#589FB8"/>
<path d="M88.9 82.3L88.4 81.8L87.9 81.3H38.3C38.3 81.6 38.3 82 38.3 82.3H88.9Z" fill="#59A0B8"/>
<path d="M89.9 83.3L89.5 82.9L88.9 82.3L88.8 82.2H38.3C38.3 82.5 38.3 82.9 38.3 83.2H89.9V83.3Z" fill="#5AA1B8"/>
<path d="M90.9 84.3L90.7 84.1L90.1 83.5L89.9 83.3H38.3C38.3 83.6 38.3 84 38.3 84.3H90.9Z" fill="#5BA2B8"/>
<path d="M91.9 85.3L91.2 84.6L90.9 84.3H38.3C38.3 84.7 38.3 85 38.3 85.3H91.9Z" fill="#5CA2B8"/>
<path d="M92.9 86.3L92.4 85.8L91.9 85.3H38.3C38.3 85.7 38.3 86 38.3 86.3H92.9Z" fill="#5DA3B8"/>
<path d="M93.9 87.3L93.5 86.9L92.9 86.3H38.3C38.3 86.7 38.3 87 38.3 87.3H93.9Z" fill="#5EA4B8"/>
<path d="M94.9 88.3L94.6 88L94 87.4L93.8 87.2H38.3C38.3 87.6 38.3 88 38.3 88.2H94.9V88.3Z" fill="#5FA5B8"/>
<path d="M95.2 89.1L95.5 88.8L95.3 88.6L95 88.3H38.3C38.3 88.6 38.3 88.8 38.3 88.8C38.3 88.8 38.3 88.9 38.3 89.1C38.3 89.2 38.3 89.2 38.3 89.3H94.9L95.2 89.1Z" fill="#60A5B9"/>
<path d="M94 90.2L94.3 89.9L94.6 89.6L94.9 89.3L95 89.2H38.3C38.3 89.2 38.3 89.2 38.3 89.3C38.3 89.4 38.3 89.5 38.3 89.6C38.3 89.7 38.3 89.8 38.3 89.9C38.3 90 38.3 90.1 38.3 90.2V90.3H93.9L94 90.2Z" fill="#60A6B9"/>
<path d="M93.2 91.1L93.5 90.8L93.8 90.5L94 90.3H38.3C38.3 90.4 38.3 90.4 38.3 90.5C38.3 90.6 38.3 90.7 38.3 90.8C38.3 90.9 38.3 91 38.3 91.1C38.3 91.2 38.3 91.3 38.3 91.4H92.9L93.2 91.1Z" fill="#61A7B9"/>
<path d="M92.1 92.2L92.4 91.9L92.7 91.6L93 91.3H38.3C38.3 91.4 38.3 91.5 38.3 91.6C38.3 91.7 38.3 91.8 38.3 91.9C38.3 92 38.3 92.1 38.3 92.2C38.3 92.2 38.3 92.3 38.3 92.4H91.9L92.1 92.2Z" fill="#62A8B9"/>
<path d="M90.9 93.3L91.2 93L91.5 92.7L91.8 92.4L91.9 92.3H38.3V92.4C38.3 92.5 38.3 92.6 38.3 92.7C38.3 92.8 38.3 92.9 38.3 93C38.3 93.1 38.3 93.2 38.3 93.3H90.9Z" fill="#63A8B9"/>
<path d="M90.1 94.2L90.4 93.9L90.7 93.6L90.9 93.4H38.3C38.3 93.5 38.3 93.6 38.3 93.6C38.3 93.7 38.3 93.8 38.3 93.9C38.3 94 38.3 94.1 38.3 94.2C38.3 94.3 38.3 94.3 38.3 94.4H89.9L90.1 94.2Z" fill="#64A9B9"/>
<path d="M89 95.3L89.3 95L89.6 94.7L89.9 94.4L90 94.3H38.3V94.4C38.3 94.5 38.3 94.6 38.3 94.7C38.3 94.8 38.3 94.9 38.3 95C38.3 95.1 38.3 95.2 38.3 95.3V95.4L89 95.3Z" fill="#65AAB9"/>
<path d="M88.1 96.1L88.4 95.8L88.7 95.5L88.9 95.3H38.3C38.3 95.4 38.3 95.4 38.3 95.5C38.3 95.6 38.3 95.7 38.3 95.8C38.3 95.9 38.3 96 38.3 96.1C38.3 96.2 38.3 96.3 38.3 96.3H87.9L88.1 96.1Z" fill="#66ABB9"/>
<path d="M87 97.2L87.3 96.9L87.6 96.6L87.9 96.3H38.3C38.3 96.4 38.3 96.5 38.3 96.6C38.3 96.7 38.3 96.8 38.3 96.9C38.3 97 38.3 97.1 38.3 97.2V97.3H86.8L87 97.2Z" fill="#66ABB9"/>
<path d="M85.8 98.3L86.1 98L86.4 97.7L86.7 97.4L86.9 97.3H38.3C38.3 97.4 38.3 97.4 38.3 97.4C38.3 97.5 38.3 97.6 38.3 97.7C38.3 97.8 38.3 97.9 38.3 98C38.3 98.1 38.3 98.2 38.3 98.3H85.8Z" fill="#67ACBA"/>
<path d="M85 99.2L85.3 98.9L85.6 98.6L85.9 98.3H38.3C38.3 98.4 38.3 98.5 38.3 98.6C38.3 98.7 38.3 98.8 38.3 98.9C38.3 99 38.3 99.1 38.3 99.2C38.3 99.3 38.3 99.3 38.3 99.4H84.8L85 99.2Z" fill="#68ADBA"/>
<path d="M83.9 100.3L84.2 100L84.5 99.7L84.8 99.4L84.9 99.3H38.3V99.4C38.3 99.5 38.3 99.6 38.3 99.7C38.3 99.8 38.3 99.9 38.3 100C38.3 100.1 38.3 100.2 38.3 100.3C38.3 100.3 38.3 100.3 38.3 100.4L83.9 100.3Z" fill="#69AEBA"/>
<path d="M83 101.1L83.3 100.8L83.6 100.5L83.8 100.3H38.3C38.3 100.4 38.3 100.4 38.3 100.5C38.3 100.6 38.3 100.7 38.3 100.8C38.3 100.9 38.3 101 38.3 101.1C38.3 101.2 38.3 101.2 38.3 101.3H82.8L83 101.1Z" fill="#6AAEBA"/>
<path d="M81.9 102.3L82.2 102L82.5 101.7L82.8 101.4L82.9 101.3H38.3C38.3 101.3 38.3 101.3 38.3 101.4C38.3 101.5 38.3 101.6 38.3 101.7C38.3 101.8 38.3 101.9 38.3 102C38.3 102.1 38.3 102.2 38.3 102.3V102.4H81.8L81.9 102.3Z" fill="#6AAFBA"/>
<path d="M81.1 103.1L81.4 102.8L81.7 102.5L81.9 102.3H38.3C38.3 102.4 38.3 102.4 38.3 102.5C38.3 102.6 38.3 102.7 38.3 102.8C38.3 102.9 38.3 103 38.3 103.1C38.3 103.2 38.3 103.3 38.3 103.4H80.8L81.1 103.1Z" fill="#6BB0BA"/>
<path d="M79.9 104.2L80.2 103.9L80.5 103.6L80.8 103.3H38.3C38.3 103.4 38.3 103.5 38.3 103.6C38.3 103.7 38.3 103.8 38.3 103.9C38.3 104 38.3 104.1 38.3 104.2C38.3 104.3 38.3 104.3 38.3 104.4H79.8L79.9 104.2Z" fill="#6CB1BA"/>
<path d="M78.8 105.3L79.1 105L79.4 104.7L79.7 104.4L79.8 104.3H38.3V104.4C38.3 104.5 38.3 104.6 38.3 104.7C38.3 104.8 38.3 104.9 38.3 105C38.3 105.1 38.3 105.2 38.3 105.3H78.8Z" fill="#6DB1BA"/>
<path d="M77.9 106.2L78.2 105.9L78.5 105.6L78.7 105.4H38.3C38.3 105.5 38.3 105.6 38.3 105.6C38.3 105.7 38.3 105.8 38.3 105.9C38.3 106 38.3 106.1 38.3 106.2C38.3 106.3 38.3 106.3 38.3 106.4H77.7L77.9 106.2Z" fill="#6EB2BA"/>
<path d="M76.8 107.3L77.1 107L77.4 106.7L77.7 106.4L77.8 106.3H38.3V106.4C38.3 106.5 38.3 106.6 38.3 106.7C38.3 106.8 38.3 106.9 38.3 107C38.3 107.1 38.3 107.2 38.3 107.3V107.4L76.8 107.3Z" fill="#6EB3BA"/>
<path d="M76 108.1L76.3 107.8L76.6 107.5L76.8 107.3H38.3C38.3 107.4 38.3 107.4 38.3 107.5C38.3 107.6 38.3 107.7 38.3 107.8C38.3 107.9 38.3 108 38.3 108.1C38.3 108.2 38.3 108.3 38.3 108.4H75.7L76 108.1Z" fill="#6FB4BA"/>
<path d="M74.8 109.3L75.1 109L75.4 108.7L75.7 108.4H38.3C38.3 108.5 38.3 108.6 38.3 108.7C38.3 108.8 38.3 108.9 38.3 109C38.3 109.1 38.3 109.2 38.3 109.3V109.4H74.7L74.8 109.3Z" fill="#70B4BA"/>
<path d="M73.7 110.4L74 110.1L74.3 109.8L74.6 109.5L74.7 109.4H38.3V109.5C38.3 109.6 38.3 109.7 38.3 109.8C38.3 109.9 38.3 110 38.3 110.1C38.3 110.2 38.3 110.3 38.3 110.4H73.7Z" fill="#71B5BB"/>
<path d="M72.9 111.2L73.2 110.9L73.5 110.6L73.8 110.3H38.3C38.3 110.4 38.3 110.5 38.3 110.6C38.3 110.7 38.3 110.8 38.3 110.9C38.3 111 38.3 111.1 38.3 111.2C38.3 111.3 38.3 111.3 38.3 111.4H72.7L72.9 111.2Z" fill="#72B6BB"/>
<path d="M71.7 112.3L72 112L72.3 111.7L72.6 111.4L72.7 111.3H38.3V111.4C38.3 111.5 38.3 111.6 38.3 111.7C38.3 111.8 38.3 111.9 38.3 112C38.3 112.1 38.3 112.2 38.3 112.3C38.3 112.3 38.3 112.3 38.3 112.4L71.7 112.3Z" fill="#72B7BB"/>
<path d="M70.9 113.2L71.2 112.9L71.5 112.6L71.7 112.4H38.3C38.3 112.5 38.3 112.5 38.3 112.6C38.3 112.7 38.3 112.8 38.3 112.9C38.3 113 38.3 113.1 38.3 113.2C38.3 113.3 38.3 113.4 38.3 113.4H70.7L70.9 113.2Z" fill="#73B7BB"/>
<path d="M69.8 114.3L70.1 114L70.4 113.7L70.7 113.4L70.8 113.3H38.3C38.3 113.3 38.3 113.3 38.3 113.4C38.3 113.5 38.3 113.6 38.3 113.7C38.3 113.8 38.3 113.9 38.3 114C38.3 114.1 38.3 114.2 38.3 114.3V114.4H69.6L69.8 114.3Z" fill="#74B8BB"/>
<path d="M68.9 115.1L69.2 114.8L69.5 114.5L69.7 114.3H38.3C38.3 114.4 38.3 114.4 38.3 114.5C38.3 114.6 38.3 114.7 38.3 114.8C38.3 114.9 38.3 115 38.3 115.1C38.3 115.2 38.3 115.3 38.3 115.4H68.6L68.9 115.1Z" fill="#75B9BB"/>
<path d="M67.8 116.2L68.1 115.9L68.4 115.6L68.7 115.3H38.3C38.3 115.4 38.3 115.5 38.3 115.6C38.3 115.7 38.3 115.8 38.3 115.9C38.3 116 38.3 116.1 38.3 116.2C38.3 116.3 38.3 116.3 38.3 116.4H67.6L67.8 116.2Z" fill="#76BABB"/>
<path d="M66.7 117.4L67 117.1L67.3 116.8L67.6 116.5L67.7 116.4H38.3V116.5C38.3 116.6 38.3 116.7 38.3 116.8C38.3 116.9 38.3 117 38.3 117.1C38.3 117.2 38.3 117.3 38.3 117.4H66.7Z" fill="#76BABB"/>
<path d="M65.8 118.2L66.1 117.9L66.4 117.6L66.6 117.4H38.3C38.3 117.5 38.3 117.6 38.3 117.6C38.3 117.7 38.3 117.8 38.3 117.9C38.3 118 38.3 118.1 38.3 118.2C38.3 118.3 38.3 118.3 38.3 118.4H65.6L65.8 118.2Z" fill="#77BBBB"/>
<path d="M64.7 119.3L65 119L65.3 118.7L65.6 118.4L65.7 118.3H38.3C38.3 118.3 38.3 118.3 38.3 118.4C38.3 118.5 38.3 118.6 38.3 118.7C38.3 118.8 38.3 118.9 38.3 119C38.3 119.1 38.3 119.2 38.3 119.3V119.4L64.7 119.3Z" fill="#78BCBB"/>
<path d="M63.8 120.2L64.1 119.9L64.4 119.6L64.6 119.4H38.3C38.3 119.5 38.3 119.5 38.3 119.6C38.3 119.7 38.3 119.8 38.3 119.9C38.3 120 38.3 120.1 38.3 120.2C38.3 120.3 38.3 120.4 38.3 120.5H63.6L63.8 120.2Z" fill="#79BDBB"/>
<path d="M62.7 121.3L63 121L63.3 120.7L63.6 120.4H38.3C38.3 120.5 38.3 120.6 38.3 120.7C38.3 120.8 38.3 120.9 38.3 121C38.3 121.1 38.3 121.2 38.3 121.3V121.4H62.6L62.7 121.3Z" fill="#79BDBB"/>
<path d="M61.6 122.4L61.9 122.1L62.2 121.8L62.5 121.5L62.6 121.4H38.3V121.5C38.3 121.6 38.3 121.7 38.3 121.8C38.3 121.9 38.3 122 38.3 122.1C38.3 122.2 38.3 122.3 38.3 122.4H61.6Z" fill="#7ABEBB"/>
<path d="M60.7 123.2L61 122.9L61.3 122.6L61.6 122.3H38.3C38.3 122.4 38.3 122.5 38.3 122.6C38.3 122.7 38.3 122.8 38.3 122.9C38.3 123 38.3 123.1 38.3 123.2C38.3 123.3 38.3 123.3 38.3 123.4H60.5L60.7 123.2Z" fill="#7BBFBB"/>
<path d="M59.6 124.4L59.9 124.1L60.2 123.8L60.5 123.5L60.6 123.4H38.3V123.5C38.3 123.6 38.3 123.7 38.3 123.8C38.3 123.9 38.3 124 38.3 124.1C38.3 124.2 38.3 124.3 38.3 124.4C38.3 124.4 38.3 124.4 38.3 124.5L59.6 124.4Z" fill="#7CBFBB"/>
<path d="M58.8 125.2L59.1 124.9L59.4 124.6L59.6 124.4H38.3C38.3 124.5 38.3 124.5 38.3 124.6C38.3 124.7 38.3 124.8 38.3 124.9C38.3 125 38.3 125.1 38.3 125.2C38.3 125.3 38.3 125.4 38.3 125.4H58.5L58.8 125.2Z" fill="#7CC0BC"/>
<path d="M57.6 126.3L57.9 126L58.2 125.7L58.5 125.4H38.3C38.3 125.5 38.3 125.6 38.3 125.7C38.3 125.8 38.3 125.9 38.3 126C38.3 126.1 38.3 126.2 38.3 126.3V126.4H57.5L57.6 126.3Z" fill="#7DC1BC"/>
<path d="M56.5 127.4L56.8 127.1L57.1 126.8L57.4 126.5L57.6 126.3H38.3C38.3 126.4 38.3 126.4 38.3 126.5C38.3 126.6 38.3 126.7 38.3 126.8C38.3 126.9 38.3 127 38.3 127.1C38.3 127.2 38.3 127.3 38.3 127.4H56.5Z" fill="#7EC2BC"/>
<path d="M55.7 128.3L56 128L56.3 127.7L56.6 127.4H38.3C38.3 127.5 38.3 127.6 38.3 127.7C38.3 127.8 38.3 127.9 38.3 128C38.3 128.1 38.3 128.2 38.3 128.3C38.3 128.4 38.3 128.4 38.3 128.5H55.5L55.7 128.3Z" fill="#7FC2BC"/>
<path d="M54.5 129.4L54.8 129.1L55.1 128.8L55.4 128.5L55.5 128.4H38.3V128.5C38.3 128.6 38.3 128.7 38.3 128.8C38.3 128.9 38.3 129 38.3 129.1C38.3 129.2 38.3 129.3 38.3 129.4H54.5Z" fill="#7FC3BC"/>
<path d="M53.7 130.2L54 129.9L54.3 129.6L54.5 129.4H38.3C38.3 129.5 38.3 129.6 38.3 129.6C38.3 129.7 38.3 129.8 38.3 129.9C38.3 130 38.3 130.1 38.3 130.2C38.3 130.3 38.3 130.3 38.3 130.4H53.5L53.7 130.2Z" fill="#80C4BC"/>
<path d="M52.6 131.4L52.9 131.1L53.2 130.8L53.5 130.5L53.6 130.4H38.3C38.3 130.4 38.3 130.4 38.3 130.5C38.3 130.6 38.3 130.7 38.3 130.8C38.3 130.9 38.3 131 38.3 131.1C38.3 131.2 38.3 131.3 38.3 131.4V131.5L52.6 131.4Z" fill="#81C4BC"/>
<path d="M51.7 132.2L52 131.9L52.3 131.6L52.5 131.4H38.3C38.3 131.5 38.3 131.5 38.3 131.6C38.3 131.7 38.3 131.8 38.3 131.9C38.3 132 38.3 132.1 38.3 132.2C38.3 132.3 38.3 132.4 38.3 132.5H51.4L51.7 132.2Z" fill="#82C5BC"/>
<path d="M50.6 133.3L50.9 133L51.2 132.7L51.5 132.4H38.3C38.3 132.5 38.3 132.6 38.3 132.7C38.3 132.8 38.3 132.9 38.3 133C38.3 133.1 38.3 133.2 38.3 133.3V133.4H50.4L50.6 133.3Z" fill="#82C6BC"/>
<path d="M49.5 134.4L49.8 134.1L50.1 133.8L50.4 133.5L50.5 133.4H38.3V133.5C38.3 133.6 38.3 133.7 38.3 133.8C38.3 133.9 38.3 134 38.3 134.1C38.3 134.2 38.3 134.3 38.3 134.4H49.5Z" fill="#83C7BC"/>
<path d="M48.6 135.3L48.9 135L49.2 134.7L49.5 134.4H38.3C38.3 134.5 38.3 134.6 38.3 134.7C38.3 134.8 38.3 134.9 38.3 135C38.3 135.1 38.3 135.2 38.3 135.3C38.3 135.4 38.3 135.4 38.3 135.5H48.4L48.6 135.3Z" fill="#84C7BC"/>
<path d="M47.5 136.4L47.8 136.1L48.1 135.8L48.4 135.5L48.5 135.4H38.3V135.5C38.3 135.6 38.3 135.7 38.3 135.8C38.3 135.9 38.3 136 38.3 136.1C38.3 136.2 38.3 136.3 38.3 136.4C38.3 136.4 38.3 136.4 38.3 136.5L47.5 136.4Z" fill="#84C8BC"/>
<path d="M46.6 137.2L46.9 136.9L47.2 136.6L47.4 136.4H38.3C38.3 136.5 38.3 136.5 38.3 136.6C38.3 136.7 38.3 136.8 38.3 136.9C38.3 137 38.3 137.1 38.3 137.2C38.3 137.3 38.3 137.4 38.3 137.4H46.4L46.6 137.2Z" fill="#85C9BC"/>
<path d="M45.5 138.3L45.8 138L46.1 137.7L46.4 137.4H38.3C38.3 137.5 38.3 137.6 38.3 137.7C38.3 137.8 38.3 137.9 38.3 138C38.3 138.1 38.3 138.2 38.3 138.3V138.4H45.4L45.5 138.3Z" fill="#86CABC"/>
<path d="M44.4 139.5L44.7 139.2L45 138.9L45.3 138.6L45.5 138.4H38.3C38.3 138.5 38.3 138.5 38.3 138.6C38.3 138.7 38.3 138.8 38.3 138.9C38.3 139 38.3 139.1 38.3 139.2C38.3 139.3 38.3 139.4 38.3 139.5H44.4Z" fill="#86CABC"/>
<path d="M43.5 140.3L43.8 140L44.1 139.7L44.4 139.4H38.3C38.3 139.5 38.3 139.6 38.3 139.7C38.3 139.8 38.3 139.9 38.3 140C38.3 140.1 38.3 140.2 38.3 140.3C38.3 140.4 38.3 140.4 38.3 140.5H43.4L43.5 140.3Z" fill="#87CBBC"/>
<path d="M42.4 141.4L42.7 141.1L43 140.8L43.3 140.5L43.4 140.4H38.3V140.5C38.3 140.6 38.3 140.7 38.3 140.8C38.3 140.9 38.3 141 38.3 141.1C38.3 141.2 38.3 141.3 38.3 141.4C38.3 141.4 38.3 141.4 38.3 141.5L42.4 141.4Z" fill="#87CCBD"/>
<path d="M41.6 142.3L41.9 142L42.2 141.7L42.4 141.5H38.4C38.4 141.6 38.4 141.7 38.4 141.7C38.4 142 38.4 142.3 38.5 142.5H41.4L41.6 142.3Z" fill="#88CDBD"/>
<path d="M40.4 143.4L40.7 143.1L41 142.8L41.3 142.5L41.4 142.4H38.5C38.6 142.8 38.8 143.1 39 143.4H40.4V143.4Z" fill="#88CEBD"/>
<path d="M40.1 143.7L40.3 143.5H38.9C39.1 143.8 39.4 144 39.8 144.1L39.9 144L40.1 143.7Z" fill="#89CEBD"/>
<path d="M40.6 34.5V34C40.5 34 40.3 34 40.2 34.1L40.3 34.2L40.6 34.5Z" fill="#57C1AD"/>
<path d="M40.6 34.5L41.2 35.1V34C41 34 40.8 34 40.6 34V34.5Z" fill="#58C2AC"/>
<path d="M41.2 35L41.4 35.2L41.8 35.6V34C41.6 34 41.4 33.9 41.2 33.9V35Z" fill="#5AC2AC"/>
<path d="M41.8 35.6L42.4 36.2V34.2C42.2 34.1 42 34.1 41.8 34V35.6Z" fill="#5BC2AC"/>
<path d="M42.3 36.2L42.9 36.8V34.5C42.7 34.4 42.5 34.3 42.3 34.3V36.2Z" fill="#5DC2AC"/>
<path d="M42.9 36.7L43.4 37.2L43.5 37.3V34.7L43.2 34.5C43.1 34.4 43 34.4 42.9 34.3V36.7V36.7Z" fill="#5EC3AC"/>
<path d="M43.5 37.3L44.1 37.9V35.1L43.5 34.8V37.3Z" fill="#60C3AC"/>
<path d="M44.1 37.9L44.4 38.2L44.6 38.5V35.4L44.1 35.1V37.9Z" fill="#61C3AC"/>
<path d="M44.6 38.5L45.2 39V35.8L44.6 35.4V38.5Z" fill="#63C4AB"/>
<path d="M45.2 39L45.4 39.2L45.8 39.6V36.1L45.2 35.8V39Z" fill="#64C4AB"/>
<path d="M45.8 39.6L46.4 40.2V36.4L45.8 36.1V39.6Z" fill="#65C4AB"/>
<path d="M46.4 40.2L46.9 40.7V36.8L46.4 36.4V40.2Z" fill="#67C4AB"/>
<path d="M46.9 40.7L47.4 41.2L47.5 41.3V37.1L46.9 36.8V40.7Z" fill="#68C5AB"/>
<path d="M47.5 41.3L48.1 41.9V37.4L47.5 37.1V41.3Z" fill="#69C5AB"/>
<path d="M48.1 41.9L48.4 42.2L48.7 42.5V37.8L48.1 37.4V41.9Z" fill="#6BC5AB"/>
<path d="M48.7 42.5L49.2 43V38.1L48.7 37.8V42.5Z" fill="#6CC5AB"/>
<path d="M49.2 43L49.4 43.2L49.8 43.6V38.4L49.2 38.1V43Z" fill="#6DC6AA"/>
<path d="M49.8 43.6L50.4 44.2V38.7L49.8 38.4V43.6Z" fill="#6FC6AA"/>
<path d="M50.4 44.2L51 44.7V39.1L50.4 38.7V44.2Z" fill="#70C6AA"/>
<path d="M51 44.7L51.5 45.2V45.3V39.4L51 39.1V44.7Z" fill="#71C7AA"/>
<path d="M51.5 45.3L52.1 45.9V39.7L51.5 39.4V45.3Z" fill="#72C7AA"/>
<path d="M52.1 45.9L52.5 46.2L52.7 46.4V40.1L52.1 39.7V45.9Z" fill="#74C7AA"/>
<path d="M52.7 46.4L53.3 47V40.4L52.7 40.1V46.4Z" fill="#75C8AA"/>
<path d="M53.3 47L53.5 47.2L53.8 47.6V40.7L53.3 40.4V47Z" fill="#76C8A9"/>
<path d="M53.8 47.6L54.4 48.2V41.1L53.8 40.7V47.6Z" fill="#77C8A9"/>
<path d="M54.4 48.2H54.5L55 48.7V41.4L54.4 41.1V48.2Z" fill="#78C8A9"/>
<path d="M55 48.7L55.5 49.2L55.6 49.3V41.7L55 41.4V48.7Z" fill="#7AC9A9"/>
<path d="M55.6 49.3L56.1 49.9V42.1L55.6 41.7V49.3Z" fill="#7BC9A9"/>
<path d="M56.1 49.9L56.5 50.2L56.7 50.4V42.4L56.1 42.1V49.9Z" fill="#7CC9A9"/>
<path d="M56.7 50.4L57.3 51V42.7L56.7 42.4V50.4Z" fill="#7DCAA9"/>
<path d="M57.3 51L57.5 51.2L57.9 51.6V43.1L57.3 42.7V51Z" fill="#7ECAA8"/>
<path d="M57.9 51.6L58.4 52.1V43.4L57.9 43.1V51.6Z" fill="#7FCAA8"/>
<path d="M58.4 52.1L58.5 52.2L59 52.7V43.7L58.4 43.4V52.1Z" fill="#81CAA8"/>
<path d="M59 52.7L59.5 53.2L59.6 53.3V44.1L59 43.7V52.7Z" fill="#82CBA8"/>
<path d="M59.6 53.3L60.2 53.9V44.4L59.6 44.1V53.3Z" fill="#83CBA8"/>
<path d="M60.2 53.9L60.6 54.2L60.7 54.4V44.7L60.2 44.4V53.9Z" fill="#84CBA8"/>
<path d="M60.7 54.4L61.3 55V45.1L60.7 44.7V54.4Z" fill="#85CCA8"/>
<path d="M61.3 55L61.6 55.2L61.9 55.6V45.4L61.3 45.1V55Z" fill="#86CCA7"/>
<path d="M61.9 55.6L62.5 56.1V45.7L61.9 45.4V55.6Z" fill="#87CCA7"/>
<path d="M62.5 56.1L62.6 56.2L63 56.7V46.1L62.5 45.7V56.1Z" fill="#89CDA7"/>
<path d="M63 56.7L63.6 57.3V46.4L63 46.1V56.7Z" fill="#8ACDA7"/>
<path d="M63.6 57.3L64.2 57.9V46.7L63.6 46.4V57.3Z" fill="#8BCDA7"/>
<path d="M64.2 57.9L64.6 58.3L64.8 58.4V47.1L64.2 46.7V57.9Z" fill="#8CCEA7"/>
<path d="M64.8 58.4L65.3 59V47.4L64.8 47.1V58.4Z" fill="#8DCEA7"/>
<path d="M65.3 59L65.6 59.3L65.9 59.6V47.7L65.3 47.4V59Z" fill="#8ECEA6"/>
<path d="M65.9 59.6L66.5 60.1V48L65.9 47.7V59.6Z" fill="#8FCEA6"/>
<path d="M66.5 60.1L66.6 60.3L67.1 60.7V48.4L66.5 48V60.1Z" fill="#90CFA6"/>
<path d="M67.1 60.7L67.6 61.3V48.7L67.1 48.4V60.7Z" fill="#91CFA6"/>
<path d="M67.6 61.3L68.2 61.8V49L67.6 48.7V61.3Z" fill="#93CFA6"/>
<path d="M68.2 61.8L68.6 62.3L68.8 62.4V49.4L68.2 49V61.8Z" fill="#94D0A6"/>
<path d="M68.8 62.4L69.4 63V49.7L68.8 49.4V62.4Z" fill="#95D0A6"/>
<path d="M69.4 63L69.7 63.3L69.9 63.6V50L69.4 49.7V63Z" fill="#96D0A5"/>
<path d="M69.9 63.6L70.5 64.1V50.4L69.9 50V63.6Z" fill="#97D1A5"/>
<path d="M70.5 64.1L70.7 64.3L71.1 64.7V50.7L70.5 50.4V64.1Z" fill="#98D1A5"/>
<path d="M71.1 64.7L71.7 65.3V51L71.1 50.7V64.7Z" fill="#99D1A5"/>
<path d="M71.7 65.3L72.2 65.8V51.4L71.7 51V65.3Z" fill="#9AD2A5"/>
<path d="M72.2 65.8L72.7 66.3L72.8 66.4V51.7L72.2 51.4V65.8Z" fill="#9BD2A5"/>
<path d="M72.8 66.4L73.4 67V52L72.8 51.7V66.4Z" fill="#9CD2A5"/>
<path d="M73.4 67L73.7 67.3L74 67.5V52.4L73.4 52V67Z" fill="#9DD3A4"/>
<path d="M74 67.5L74.5 68.1V52.7L74 52.4V67.5Z" fill="#9ED3A4"/>
<path d="M74.5 68.1L74.7 68.3L75.1 68.7V53L74.5 52.7V68.1Z" fill="#9FD3A4"/>
<path d="M75.1 68.7L75.7 69.3V53.4L75.1 53V68.7Z" fill="#A0D4A4"/>
<path d="M75.7 69.3L76.3 69.8V53.7L75.7 53.4V69.3Z" fill="#A2D4A4"/>
<path d="M76.3 69.8L76.7 70.3L76.8 70.4V54L76.3 53.7V69.8Z" fill="#A3D4A4"/>
<path d="M76.8 70.4L77.4 71V54.4L76.8 54V70.4Z" fill="#A4D5A3"/>
<path d="M77.4 71L77.7 71.3L78 71.5V54.7L77.4 54.4V71Z" fill="#A5D5A3"/>
<path d="M78 71.5L78.6 72.1V55L78 54.7V71.5Z" fill="#A6D5A3"/>
<path d="M78.6 72.1L78.8 72.3L79.1 72.7V55.4L78.6 55V72.1Z" fill="#A7D6A3"/>
<path d="M79.1 72.7L79.7 73.3V55.7L79.1 55.4V72.7Z" fill="#A8D6A3"/>
<path d="M79.7 73.3H79.8L80.3 73.8V56L79.7 55.7V73.3Z" fill="#A9D6A3"/>
<path d="M80.3 73.8L80.8 74.3L80.9 74.4V56.4L80.3 56V73.8Z" fill="#AAD7A3"/>
<path d="M80.9 74.4L81.4 75V56.7L80.9 56.4V74.4Z" fill="#ABD7A2"/>
<path d="M81.4 75L81.8 75.3L82 75.5V57L81.4 56.7V75Z" fill="#ACD7A2"/>
<path d="M82 75.5L82.6 76.1V57.3L82 57V75.5Z" fill="#ADD8A2"/>
<path d="M82.6 76.1L82.8 76.3L83.2 76.7V57.7L82.6 57.3V76.1Z" fill="#AED8A2"/>
<path d="M83.2 76.7L83.7 77.2V58L83.2 57.7V76.7Z" fill="#AFD8A2"/>
<path d="M83.7 77.2L83.8 77.3L84.3 77.8V58.3L83.7 58V77.2Z" fill="#B0D9A2"/>
<path d="M84.3 77.8L84.8 78.3L84.9 78.4V58.7L84.3 58.3V77.8Z" fill="#B1D9A1"/>
<path d="M84.9 78.4L85.5 79V59L84.9 58.7V78.4Z" fill="#B2D9A1"/>
<path d="M85.5 79L85.8 79.3L86.1 79.5V59.3L85.5 59V79Z" fill="#B3DAA1"/>
<path d="M86.1 79.5L86.6 80.1V59.7L86.1 59.3V79.5Z" fill="#B4DAA1"/>
<path d="M86.6 80.1L86.8 80.3L87.2 80.7V60L87 59.9C87 59.9 86.9 59.9 86.9 59.8L86.6 59.6V80.1Z" fill="#B5DAA1"/>
<path d="M87.2 80.7L87.8 81.3V60.4H87.7C87.7 60.4 87.7 60.4 87.6 60.4L87.2 60.1V80.7Z" fill="#B6DBA1"/>
<path d="M87.8 81.2L87.9 81.3L88.4 81.8V60.7L87.8 60.3V81.2Z" fill="#B7DBA0"/>
<path d="M88.4 81.8L88.9 82.3V82.4V61L88.4 60.7V81.8Z" fill="#B9DBA0"/>
<path d="M88.9 82.4L89.5 82.9V61.3L88.9 61V82.4Z" fill="#BADCA0"/>
<path d="M89.5 82.9L89.9 83.3L90.1 83.5V61.7L89.5 61.3V82.9Z" fill="#BBDCA0"/>
<path d="M90.1 83.5L90.7 84.1V62L90.1 61.7V83.5Z" fill="#BCDCA0"/>
<path d="M90.7 84.1L90.9 84.3L91.2 84.7V62.3L90.7 62V84.1Z" fill="#BDDDA0"/>
<path d="M91.2 84.7L91.8 85.2V62.7L91.2 62.3V84.7Z" fill="#BEDD9F"/>
<path d="M91.8 85.2L91.9 85.3L92.4 85.8V63L91.8 62.7V85.2Z" fill="#BFDD9F"/>
<path d="M92.4 85.8L92.9 86.3L93 86.4V63.3L92.4 63V85.8Z" fill="#C0DE9F"/>
<path d="M93 86.4L93.5 86.9V63.7L93 63.3V86.4Z" fill="#C1DE9F"/>
<path d="M93.5 86.9L93.9 87.3L94.1 87.5V64L93.5 63.7V86.9Z" fill="#C2DE9F"/>
<path d="M94.1 87.5L94.7 88.1V64.3L94.1 64V87.5Z" fill="#C3DF9F"/>
<path d="M94.7 88.1L94.9 88.3L95.3 88.7V64.7L94.7 64.3V88.1Z" fill="#C4DF9E"/>
<path d="M95.3 88.7L95.4 88.8L95.6 88.7L95.8 88.5V65L95.3 64.7V88.7Z" fill="#C5DF9E"/>
<path d="M95.8 88.5L96 88.3L96.3 88L96.4 87.9V65.3L95.8 65V88.5Z" fill="#C6E09E"/>
<path d="M96.4 87.9L96.6 87.6L97 87.3V65.7L96.4 65.3V87.9Z" fill="#C7E09E"/>
<path d="M97 87.3L97.3 87L97.6 86.7V66L97 65.7V87.3Z" fill="#C8E09E"/>
<path d="M97.6 86.7L97.7 86.6L98 86.3L98.1 86.2V66.3L97.6 66V86.7Z" fill="#C9E19E"/>
<path d="M98.1 86.2L98.4 85.9L98.7 85.6V66.6L98.1 66.3V86.2Z" fill="#CAE19D"/>
<path d="M98.7 85.6L99.1 85.2L99.3 85V67L98.7 66.6V85.6Z" fill="#CBE19D"/>
<path d="M99.3 85L99.4 84.9L99.8 84.6L99.9 84.5V67.3L99.3 67V85Z" fill="#CCE29D"/>
<path d="M99.9 84.5L100.1 84.2L100.4 83.9V67.6L99.9 67.3V84.5Z" fill="#CDE29D"/>
<path d="M100.4 83.9L100.8 83.5L101 83.3V68L100.4 67.6V83.9Z" fill="#CEE39D"/>
<path d="M101 83.3L101.1 83.2L101.5 82.9L101.6 82.7V68.3L101 68V83.3Z" fill="#CFE39C"/>
<path d="M101.6 82.7L101.8 82.5L102.2 82.2V68.6L101.6 68.3V82.7Z" fill="#D0E39C"/>
<path d="M102.2 82.2L102.5 81.8L102.7 81.6V69L102.2 68.6V82.2Z" fill="#D1E49C"/>
<path d="M102.7 81.6L102.9 81.5L103.2 81.1L103.3 81V69.3L102.7 69V81.6Z" fill="#D2E49C"/>
<path d="M103.3 81L103.5 80.8L103.9 80.5V69.6L103.3 69.3V81Z" fill="#D3E49C"/>
<path d="M103.9 80.5L104.2 80.1L104.5 79.9V70L103.9 69.6V80.5Z" fill="#D4E59C"/>
<path d="M104.5 79.9L104.6 79.8L104.9 79.4L105 79.3V70.3L104.5 70V79.9Z" fill="#D5E59B"/>
<path d="M105 79.3L105.3 79.1L105.6 78.8V70.6L105 70.3V79.3Z" fill="#D6E59B"/>
<path d="M105.6 78.8V78.7L106 78.4L106.2 78.2V71L105.6 70.6V78.8Z" fill="#D7E69B"/>
<path d="M106.2 78.2L106.3 78.1L106.6 77.7L106.8 77.6V71.3L106.2 71V78.2Z" fill="#D7E69B"/>
<path d="M106.8 77.6L107 77.4L107.3 77V71.6L106.8 71.3V77.6Z" fill="#D8E69B"/>
<path d="M107.3 77L107.7 76.7L107.9 76.5V72L107.3 71.6V77Z" fill="#D9E79A"/>
<path d="M107.9 76.5L108 76.4L108.4 76L108.5 75.9V72.3L107.9 72V76.5Z" fill="#DAE79A"/>
<path d="M108.5 75.9L108.7 75.7L109.1 75.3V72.6L108.5 72.3V75.9Z" fill="#DBE79A"/>
<path d="M109.1 75.3L109.4 75L109.6 74.8V73L109.1 72.6V75.3Z" fill="#DCE89A"/>
<path d="M109.6 74.8L109.8 74.6L110.1 74.3L110.2 74.2V73.3L109.6 73V74.8Z" fill="#DDE89A"/>
<path d="M110.2 74.2L110.4 74L110.8 73.6L110.2 73.3V74.2Z" fill="#DEE89A"/>
<path d="M95.7 89.1L95.6 89L95.4 88.8L95.2 89.1H95.7Z" fill="#EC413D"/>
<path d="M96 89.4V89.3L95.7 89.1H95.2L94.9 89.3V89.4H96Z" fill="#EB413E"/>
<path d="M96.3 89.7L96 89.4H94.9L94.6 89.7H96.3Z" fill="#EA413F"/>
<path d="M96.6 90L96.3 89.7H94.6L94.3 90H96.6Z" fill="#EA4140"/>
<path d="M96.9 90.2L96.6 90H94.3L94 90.2H96.9Z" fill="#E94140"/>
<path d="M97.1 90.5L97 90.4L96.9 90.2H94L93.9 90.3L93.7 90.5H97.1Z" fill="#E84241"/>
<path d="M97.4 90.8L97.3 90.7L97.1 90.5H93.7L93.5 90.8H97.4Z" fill="#E84242"/>
<path d="M97.7 91.1L97.4 90.8H93.5L93.2 91.1H97.7Z" fill="#E74242"/>
<path d="M98 91.4L97.7 91.1H93.2L92.9 91.3V91.4H98Z" fill="#E74243"/>
<path d="M98.3 91.6L98 91.4H92.9L92.6 91.6H98.3Z" fill="#E64244"/>
<path d="M98.5 91.9L98.4 91.7L98.3 91.6H92.6L92.3 91.9H98.5Z" fill="#E64244"/>
<path d="M98.8 92.2L98.7 92.1L98.5 91.9H92.3L92.1 92.2H98.8Z" fill="#E54245"/>
<path d="M99.1 92.5V92.4L98.8 92.2H92.1L91.9 92.3L91.8 92.5H99.1Z" fill="#E54245"/>
<path d="M99.4 92.8L99.1 92.5H91.8L91.5 92.8H99.4Z" fill="#E44246"/>
<path d="M99.7 93L99.4 92.8H91.5L91.2 93H99.7Z" fill="#E44247"/>
<path d="M100 93.3L99.7 93.1V93H91.2L90.9 93.3H100Z" fill="#E34247"/>
<path d="M100.2 93.6L100.1 93.5L100 93.3H90.9L90.6 93.6H100.2Z" fill="#E34248"/>
<path d="M100.5 93.9L100.4 93.8L100.2 93.6H90.6L90.4 93.9H100.5Z" fill="#E24249"/>
<path d="M100.8 94.2V94.1L100.5 93.9H90.4L90.1 94.2H100.8Z" fill="#E24349"/>
<path d="M101.1 94.4L100.8 94.2H90.1L89.9 94.4H89.8H101.1Z" fill="#E1434A"/>
<path d="M101.4 94.7L101.1 94.5V94.4H89.8L89.5 94.7H101.4Z" fill="#E1434A"/>
<path d="M101.6 95L101.5 94.8L101.4 94.7H89.5L89.2 95H101.6Z" fill="#E0434B"/>
<path d="M101.9 95.3L101.8 95.2L101.6 95H89.2L89 95.3H101.9Z" fill="#E0434C"/>
<path d="M102.2 95.6V95.5L101.9 95.3H89L88.9 95.4L88.7 95.6H102.2Z" fill="#DF434C"/>
<path d="M102.5 95.8L102.2 95.6H88.7L88.4 95.8H102.5Z" fill="#DF434D"/>
<path d="M102.8 96.1L102.5 95.8H88.4L88.1 96.1H102.8Z" fill="#DE434D"/>
<path d="M103.1 96.4L102.9 96.2L102.8 96.1H88.1L87.9 96.4H87.8H103.1Z" fill="#DE434E"/>
<path d="M103.3 96.7L103.2 96.5L103.1 96.4H87.8L87.5 96.7H103.3Z" fill="#DD434F"/>
<path d="M103.6 96.9H103.5L103.3 96.7H87.5L87.3 96.9H103.6Z" fill="#DD434F"/>
<path d="M103.9 97.2L103.6 96.9H87.3L87 97.2H103.9Z" fill="#DC4350"/>
<path d="M104.2 97.5L103.9 97.2H87L86.8 97.4L86.7 97.5H104.2Z" fill="#DC4350"/>
<path d="M104.5 97.8L104.2 97.6V97.5H86.7L86.4 97.8H104.5Z" fill="#DB4451"/>
<path d="M104.7 98.1L104.6 97.9L104.5 97.8H86.4L86.1 98.1H104.7Z" fill="#DB4451"/>
<path d="M105 98.3L104.9 98.2L104.7 98.1H86.1L85.8 98.3H105Z" fill="#DA4452"/>
<path d="M105.3 98.6L105 98.3H85.8V98.4L85.6 98.6H105.3Z" fill="#D94452"/>
<path d="M105.6 98.9L105.3 98.6H85.6L85.3 98.9H105.6Z" fill="#D94453"/>
<path d="M105.9 99.2L105.6 98.9H85.3L85 99.2H105.9Z" fill="#D84454"/>
<path d="M106.2 99.5L106 99.3L105.9 99.2H85L84.8 99.4L84.7 99.5H106.2Z" fill="#D84454"/>
<path d="M106.4 99.7L106.3 99.6L106.2 99.5H84.7L84.4 99.7H106.4Z" fill="#D74455"/>
<path d="M106.7 100L106.6 99.9L106.4 99.7H84.4L84.2 100H106.7Z" fill="#D74455"/>
<path d="M107 100.3L106.7 100H84.2L83.9 100.3H107Z" fill="#D64456"/>
<path d="M107.3 100.6L107 100.3H83.9L83.8 100.4L83.6 100.6H107.3Z" fill="#D64456"/>
<path d="M107.6 100.9L107.3 100.6H83.6L83.3 100.9H107.6Z" fill="#D54457"/>
<path d="M107.9 101.1L107.7 101L107.6 100.9H83.3L83 101.1H107.9Z" fill="#D54557"/>
<path d="M108.1 101.4L108 101.3L107.9 101.1H83L82.8 101.4H82.7H108.1Z" fill="#D44558"/>
<path d="M108.4 101.7L108.1 101.4H82.7L82.5 101.7H108.4Z" fill="#D44558"/>
<path d="M108.7 102L108.4 101.7H82.5L82.2 102H108.7Z" fill="#D34559"/>
<path d="M109 102.3L108.7 102H82.2L81.9 102.3H109Z" fill="#D34559"/>
<path d="M109.3 102.5L109.1 102.3H109H81.9L81.8 102.4L81.6 102.5H109.3Z" fill="#D2455A"/>
<path d="M109.5 102.8L109.4 102.7L109.3 102.5H81.6L81.3 102.8H109.5Z" fill="#D2455A"/>
<path d="M109.8 103.1L109.7 103L109.5 102.8H81.3L81.1 103.1H109.8Z" fill="#D1455B"/>
<path d="M110.1 103.4L109.8 103.1H81.1L80.8 103.4H110.1Z" fill="#D1455B"/>
<path d="M110.4 103.7L110.1 103.4H80.8L80.5 103.7H110.4Z" fill="#D0455C"/>
<path d="M80.5 103.7L80.2 103.9H110.7L110.4 103.7H80.5Z" fill="#D0455C"/>
<path d="M80.2 103.9L79.9 104.2H110.5L110.8 104.1L110.7 103.9H80.2Z" fill="#CF455D"/>
<path d="M79.9 104.2L79.8 104.4L79.6 104.5H110L110.5 104.2H79.9Z" fill="#CF455D"/>
<path d="M79.6 104.5L79.4 104.8H109.5L110 104.5H79.6Z" fill="#CE455E"/>
<path d="M79.4 104.8L79.1 105.1H109L109.5 104.8H79.4Z" fill="#CE455E"/>
<path d="M79.1 105.1L78.8 105.3H108.6L109 105.1H79.1Z" fill="#CD455F"/>
<path d="M78.8 105.3V105.4L78.5 105.6H108.1L108.6 105.3H78.8Z" fill="#CD465F"/>
<path d="M78.5 105.6L78.2 105.9H107.6L108.1 105.6H78.5Z" fill="#CC4660"/>
<path d="M78.2 105.9L77.9 106.2H107.1L107.6 105.9H78.2Z" fill="#CC4660"/>
<path d="M77.9 106.2L77.7 106.4V106.5H106.6L107.1 106.2H77.9Z" fill="#CB4661"/>
<path d="M77.7 106.5L77.4 106.7H106.1L106.6 106.5H77.7Z" fill="#CB4661"/>
<path d="M77.4 106.7L77.1 107H105.6L106.1 106.7H77.4Z" fill="#CA4661"/>
<path d="M77.1 107L76.8 107.3H105.2L105.6 107H77.1Z" fill="#CA4662"/>
<path d="M76.8 107.3L76.7 107.4L76.5 107.6H104.7L105.2 107.3H76.8Z" fill="#C94662"/>
<path d="M76.5 107.6L76.3 107.9H104.2L104.7 107.6H76.5Z" fill="#C94663"/>
<path d="M76.3 107.9L76 108.1H103.7L104.2 107.9H76.3Z" fill="#C84663"/>
<path d="M76 108.1L75.7 108.4H103.2L103.7 108.1H76Z" fill="#C84664"/>
<path d="M75.7 108.4L75.4 108.7H102.7L103.2 108.4H75.7Z" fill="#C74664"/>
<path d="M75.4 108.7L75.1 109H102.3L102.7 108.7H75.4Z" fill="#C74665"/>
<path d="M75.1 109L74.8 109.3H101.8L102.3 109H75.1Z" fill="#C64665"/>
<path d="M74.8 109.3L74.7 109.4L74.6 109.5H101.3L101.8 109.3H74.8Z" fill="#C64666"/>
<path d="M74.6 109.5L74.3 109.8H100.8L101.3 109.5H74.6Z" fill="#C54666"/>
<path d="M74.3 109.8L74 110.1H100.3L100.8 109.8H74.3Z" fill="#C54667"/>
<path d="M74 110.1L73.7 110.4H99.8L100.3 110.1H74Z" fill="#C44667"/>
<path d="M73.7 110.4L73.4 110.7H99.3L99.8 110.4H73.7Z" fill="#C44768"/>
<path d="M73.4 110.7L73.2 110.9H98.9L99.3 110.7H73.4Z" fill="#C34768"/>
<path d="M73.2 110.9L72.9 111.2H98.4L98.9 110.9H73.2Z" fill="#C34769"/>
<path d="M72.9 111.2L72.7 111.4L72.6 111.5H97.9L98.4 111.2H72.9Z" fill="#C24769"/>
<path d="M72.6 111.5L72.3 111.8H97.4L97.9 111.5H72.6Z" fill="#C2476A"/>
<path d="M72.3 111.8L72 112.1H96.9L97.4 111.8H72.3Z" fill="#C1476A"/>
<path d="M72 112.1L71.7 112.3H96.4L96.9 112.1H72Z" fill="#C1476A"/>
<path d="M71.7 112.3V112.4L71.5 112.6H96L96.4 112.3H71.7Z" fill="#C0476B"/>
<path d="M71.5 112.6L71.2 112.9H95.5L96 112.6H71.5Z" fill="#C0476B"/>
<path d="M71.2 112.9L70.9 113.2H95L95.5 112.9H71.2Z" fill="#BF476C"/>
<path d="M70.7 113.4L70.6 113.5H94.5L95 113.2H70.9L70.7 113.4Z" fill="#BF476C"/>
<path d="M70.3 113.7H94L94.5 113.5H70.6L70.3 113.7Z" fill="#BE476D"/>
<path d="M70.1 114H93.5L94 113.7H70.3L70.1 114Z" fill="#BE476D"/>
<path d="M69.8 114.3H93L93.5 114H70.1L69.8 114.3Z" fill="#BD476E"/>
<path d="M69.7 114.4L69.5 114.6H92.6L93 114.3H69.8L69.7 114.4Z" fill="#BD476E"/>
<path d="M69.2 114.9H92.1L92.6 114.6H69.5L69.2 114.9Z" fill="#BC476F"/>
<path d="M68.9 115.1H91.6L92.1 114.9H69.2L68.9 115.1Z" fill="#BC476F"/>
<path d="M68.6 115.4H91.1L91.6 115.1H68.9L68.6 115.4Z" fill="#BB4770"/>
<path d="M68.4 115.7H90.6L91.1 115.4H68.6L68.4 115.7Z" fill="#BB4770"/>
<path d="M68.1 116H90.1L90.6 115.7H68.4L68.1 116Z" fill="#BA4771"/>
<path d="M67.8 116.2H89.7L90.1 116H68.1L67.8 116.2Z" fill="#BA4771"/>
<path d="M67.6 116.4L67.5 116.5H89.2L89.7 116.2H67.8L67.6 116.4Z" fill="#B94771"/>
<path d="M67.2 116.8H88.7L89.2 116.5H67.5L67.2 116.8Z" fill="#B94872"/>
<path d="M66.9 117.1H88.2L88.7 116.8H67.2L66.9 117.1Z" fill="#B84872"/>
<path d="M66.7 117.4H87.7L88.2 117.1H66.9L66.7 117.4Z" fill="#B84873"/>
<path d="M66.6 117.4L66.4 117.6H87.3C87.4 117.6 87.4 117.5 87.5 117.5C87.7 117.4 87.8 117.3 87.8 117.3L66.6 117.4Z" fill="#B84873"/>
<path d="M66.1 117.9H86.7H86.8C87 117.8 87.1 117.7 87.2 117.7H66.3L66.1 117.9Z" fill="#B74874"/>
<path d="M65.8 118.2H86.3C86.4 118.2 86.4 118.1 86.5 118.1L86.8 117.9H66.2L65.8 118.2Z" fill="#B74874"/>
<path d="M65.6 118.4L85.8 118.5C86 118.4 86.1 118.3 86.3 118.2H65.9L65.6 118.4Z" fill="#B64875"/>
<path d="M65.3 118.8H85.3C85.5 118.7 85.6 118.6 85.8 118.5H65.6L65.3 118.8Z" fill="#B64875"/>
<path d="M65 119H84.8C85 118.9 85.1 118.8 85.3 118.7H65.3L65 119Z" fill="#B54876"/>
<path d="M64.7 119.3H84.3C84.5 119.2 84.6 119.1 84.8 119H65L64.7 119.3Z" fill="#B54876"/>
<path d="M64.6 119.4L64.4 119.6H83.8C84 119.5 84.1 119.4 84.3 119.3L64.6 119.4Z" fill="#B44877"/>
<path d="M64.1 119.9H83.3C83.5 119.8 83.6 119.7 83.8 119.6H64.4L64.1 119.9Z" fill="#B44877"/>
<path d="M63.8 120.2H82.8C83 120.1 83.1 120 83.3 119.9H64.1L63.8 120.2Z" fill="#B34877"/>
<path d="M63.6 120.4H82.4C82.6 120.3 82.7 120.2 82.9 120.1H63.9L63.6 120.4Z" fill="#B34878"/>
<path d="M63.3 120.7H81.9C82.1 120.6 82.2 120.5 82.4 120.4H63.6L63.3 120.7Z" fill="#B24878"/>
<path d="M63 121H81.4C81.6 120.9 81.7 120.8 81.9 120.7H63.3L63 121Z" fill="#B24879"/>
<path d="M62.7 121.3H80.9C81.1 121.2 81.2 121.1 81.4 121H63L62.7 121.3Z" fill="#B14879"/>
<path d="M62.6 121.4L62.5 121.5H80.5C80.7 121.4 80.8 121.3 81 121.2H62.8L62.6 121.4Z" fill="#B1487A"/>
<path d="M62.2 121.8H80C80.2 121.7 80.3 121.6 80.5 121.5H62.5L62.2 121.8Z" fill="#B0487A"/>
<path d="M61.9 122.1H79.5C79.7 122 79.8 121.9 80 121.8H62.2L61.9 122.1Z" fill="#B0487B"/>
<path d="M61.6 122.4H79C79.2 122.3 79.3 122.2 79.5 122.1H61.9L61.6 122.4Z" fill="#AF487B"/>
<path d="M61.6 122.4L61.3 122.7H78.5C78.7 122.6 78.8 122.5 79 122.4H61.6Z" fill="#AF487B"/>
<path d="M61 123H78C78.2 122.9 78.3 122.8 78.5 122.7H61.3L61 123Z" fill="#AE487C"/>
<path d="M60.7 123.2H77.5C77.7 123.1 77.8 123 78 122.9H61L60.7 123.2Z" fill="#AE487C"/>
<path d="M60.6 123.4L77.1 123.5C77.3 123.4 77.4 123.3 77.6 123.2H60.8L60.6 123.4Z" fill="#AD487D"/>
<path d="M60.2 123.8H76.6C76.8 123.7 76.9 123.6 77.1 123.5H60.5L60.2 123.8Z" fill="#AD487D"/>
<path d="M59.9 124.1H76.1C76.3 124 76.4 123.9 76.6 123.8H60.2L59.9 124.1Z" fill="#AC487E"/>
<path d="M59.6 124.4H75.6C75.8 124.3 75.9 124.2 76.1 124.1H59.9L59.6 124.4Z" fill="#AC487E"/>
<path d="M59.5 124.4L59.3 124.6H75.1C75.3 124.5 75.4 124.4 75.6 124.3L59.5 124.4Z" fill="#AB487E"/>
<path d="M59 124.9H74.6C74.8 124.8 74.9 124.7 75.1 124.6H59.3L59 124.9Z" fill="#AB487F"/>
<path d="M58.8 125.2H74.2C74.4 125.1 74.5 125 74.7 124.9H59.1L58.8 125.2Z" fill="#AB487F"/>
<path d="M58.5 125.4H73.6C73.8 125.3 73.9 125.2 74.1 125.1H58.7L58.5 125.4Z" fill="#AA4880"/>
<path d="M58.2 125.8H73.2C73.4 125.7 73.5 125.6 73.7 125.5H58.5L58.2 125.8Z" fill="#AA4880"/>
<path d="M57.9 126H72.7C72.9 125.9 73 125.8 73.2 125.7H58.2L57.9 126Z" fill="#A94981"/>
<path d="M57.6 126.3H72.2C72.4 126.2 72.5 126.1 72.7 126H57.9L57.6 126.3Z" fill="#A94981"/>
<path d="M57.5 126.4L57.3 126.6H71.7C71.9 126.5 72 126.4 72.2 126.3H57.6L57.5 126.4Z" fill="#A84981"/>
<path d="M57.1 126.9H71.3C71.5 126.8 71.6 126.7 71.8 126.6H57.4L57.1 126.9Z" fill="#A84982"/>
<path d="M56.8 127.2H70.8C71 127.1 71.1 127 71.3 126.9H57.1L56.8 127.2Z" fill="#A74982"/>
<path d="M56.5 127.4H70.3C70.5 127.3 70.6 127.2 70.8 127.1H56.8L56.5 127.4Z" fill="#A74983"/>
<path d="M56.5 127.4L56.2 127.7H69.8C70 127.6 70.1 127.5 70.3 127.4H56.5Z" fill="#A64983"/>
<path d="M55.9 128H69.3C69.5 127.9 69.6 127.8 69.8 127.7H56.2L55.9 128Z" fill="#A64983"/>
<path d="M55.7 128.3H68.9C69.1 128.2 69.2 128.1 69.4 128H56L55.7 128.3Z" fill="#A54984"/>
<path d="M55.5 128.4L55.4 128.5H68.4C68.6 128.4 68.7 128.3 68.9 128.2H55.7L55.5 128.4Z" fill="#A54984"/>
<path d="M55.1 128.8H67.9C68.1 128.7 68.2 128.6 68.4 128.5H55.4L55.1 128.8Z" fill="#A44985"/>
<path d="M54.8 129.1H67.4C67.6 129 67.7 128.9 67.9 128.8H55.1L54.8 129.1Z" fill="#A44985"/>
<path d="M54.5 129.4H66.9C67.1 129.3 67.2 129.2 67.4 129.1H54.8L54.5 129.4Z" fill="#A34986"/>
<path d="M54.5 129.4L54.3 129.6H66.5C66.7 129.5 66.8 129.4 67 129.3L54.5 129.4Z" fill="#A34986"/>
<path d="M54 130H65.9C66.1 129.9 66.2 129.8 66.4 129.7H54.3L54 130Z" fill="#A24986"/>
<path d="M53.7 130.2H65.4C65.6 130.1 65.7 130 65.9 129.9H54L53.7 130.2Z" fill="#A24987"/>
<path d="M53.5 130.4L65 130.5C65.2 130.4 65.3 130.3 65.5 130.2H53.8L53.5 130.4Z" fill="#A24987"/>
<path d="M53.1 130.8H64.4C64.6 130.7 64.7 130.6 64.9 130.5H53.4L53.1 130.8Z" fill="#A14988"/>
<path d="M52.8 131.1H63.9C64.1 131 64.2 130.9 64.4 130.8H53.1L52.8 131.1Z" fill="#A14988"/>
<path d="M52.6 131.4H63.5C63.7 131.3 63.8 131.2 64 131.1H52.9L52.6 131.4Z" fill="#A04988"/>
<path d="M52.5 131.5L52.3 131.7H63C63.2 131.6 63.3 131.5 63.5 131.4L52.5 131.5Z" fill="#A04989"/>
<path d="M52 131.9H62.5C62.7 131.8 62.8 131.7 63 131.6H52.3L52 131.9Z" fill="#9F4989"/>
<path d="M51.7 132.2H62C62.2 132.1 62.3 132 62.5 131.9H52L51.7 132.2Z" fill="#9F498A"/>
<path d="M51.5 132.5H61.6C61.8 132.4 61.9 132.3 62.1 132.2H51.8L51.5 132.5Z" fill="#9E498A"/>
<path d="M51.1 132.8H61C61.2 132.7 61.3 132.6 61.5 132.5H51.4L51.1 132.8Z" fill="#9E498A"/>
<path d="M50.9 133H60.6C60.8 132.9 60.9 132.8 61.1 132.7H51.2L50.9 133Z" fill="#9D498B"/>
<path d="M50.6 133.3H60.1C60.3 133.2 60.4 133.1 60.6 133H50.9L50.6 133.3Z" fill="#9D498B"/>
<path d="M50.4 133.5L50.3 133.6H59.6C59.8 133.5 59.9 133.4 60.1 133.3H50.6L50.4 133.5Z" fill="#9D498C"/>
<path d="M50 133.9H59.1C59.3 133.8 59.4 133.7 59.6 133.6H50.3L50 133.9Z" fill="#9C498C"/>
<path d="M49.7 134.2H58.6C58.8 134.1 58.9 134 59.1 133.9H50L49.7 134.2Z" fill="#9C498C"/>
<path d="M49.5 134.4H58.2C58.4 134.3 58.5 134.2 58.7 134.1H49.8L49.5 134.4Z" fill="#9B498D"/>
<path d="M49.4 134.5L49.1 134.8H57.6C57.8 134.7 57.9 134.6 58.1 134.5H49.4Z" fill="#9B498D"/>
<path d="M48.9 135H57.2C57.4 134.9 57.5 134.8 57.7 134.7H49.2L48.9 135Z" fill="#9A498D"/>
<path d="M48.6 135.3H56.7C56.9 135.2 57 135.1 57.2 135H48.9L48.6 135.3Z" fill="#9A498E"/>
<path d="M48.4 135.5L56.2 135.6C56.4 135.5 56.5 135.4 56.7 135.3H48.6L48.4 135.5Z" fill="#99498E"/>
<path d="M48 135.8H55.7C55.9 135.7 56 135.6 56.2 135.5H48.3L48 135.8Z" fill="#99498F"/>
<path d="M47.8 136.1H55.3C55.5 136 55.6 135.9 55.8 135.8H48.1L47.8 136.1Z" fill="#98498F"/>
<path d="M47.5 136.4H54.8C55 136.3 55.1 136.2 55.3 136.1H47.8L47.5 136.4Z" fill="#98498F"/>
<path d="M47.4 136.5L47.2 136.7H54.3C54.5 136.6 54.6 136.5 54.8 136.4L47.4 136.5Z" fill="#984990"/>
<path d="M46.9 136.9H53.8C54 136.8 54.1 136.7 54.3 136.6H47.2L46.9 136.9Z" fill="#974990"/>
<path d="M46.6 137.2H53.3C53.5 137.1 53.6 137 53.8 136.9H46.9L46.6 137.2Z" fill="#974991"/>
<path d="M46.4 137.5H52.8C53 137.4 53.1 137.3 53.3 137.2H46.6L46.4 137.5Z" fill="#964A91"/>
<path d="M46.1 137.8H52.4C52.6 137.7 52.7 137.6 52.9 137.5H46.4L46.1 137.8Z" fill="#964A91"/>
<path d="M45.8 138.1H51.9C52.1 138 52.2 137.9 52.4 137.8H46.1L45.8 138.1Z" fill="#954A92"/>
<path d="M45.5 138.3H51.4C51.6 138.2 51.7 138.1 51.9 138H45.8L45.5 138.3Z" fill="#954A92"/>
<path d="M45.4 138.5L45.2 138.7H50.9C51.1 138.6 51.2 138.5 51.4 138.4H45.5L45.4 138.5Z" fill="#944A93"/>
<path d="M44.9 138.9H50.4C50.6 138.8 50.7 138.7 50.9 138.6H45.2L44.9 138.9Z" fill="#944A93"/>
<path d="M44.7 139.2H50C50.2 139.1 50.3 139 50.5 138.9H45L44.7 139.2Z" fill="#934A93"/>
<path d="M44.4 139.5H49.5C49.7 139.4 49.8 139.3 50 139.2H44.7L44.4 139.5Z" fill="#934A94"/>
<path d="M44.4 139.5L44.1 139.8H49C49.2 139.7 49.3 139.6 49.5 139.5H44.4Z" fill="#934A94"/>
<path d="M43.8 140H48.5C48.7 139.9 48.8 139.8 49 139.7H44.1L43.8 140Z" fill="#924A94"/>
<path d="M43.5 140.3H48C48.2 140.2 48.3 140.1 48.5 140H43.8L43.5 140.3Z" fill="#924A95"/>
<path d="M43.4 140.5L43.3 140.6H47.6C47.8 140.5 47.9 140.4 48.1 140.3H43.6L43.4 140.5Z" fill="#914A95"/>
<path d="M43 140.9H47.1C47.3 140.8 47.4 140.7 47.6 140.6H43.3L43 140.9Z" fill="#914A96"/>
<path d="M42.7 141.1H46.6L46.8 141C46.9 140.9 47 140.9 47.1 140.8H43L42.7 141.1Z" fill="#904A96"/>
<path d="M42.4 141.4H46.1L46.5 141.1H42.7L42.4 141.4Z" fill="#904A96"/>
<path d="M42.4 141.5L42.1 141.7H45.6L46.1 141.4H42.4V141.5Z" fill="#904A97"/>
<path d="M41.8 142H45.1L45.6 141.7H42.1L41.8 142Z" fill="#8F4A97"/>
<path d="M41.6 142.3H44.6L45.1 142H41.8L41.6 142.3Z" fill="#8F4A97"/>
<path d="M41.3 142.5H44.1L44.6 142.3H41.6L41.3 142.5Z" fill="#8E4A98"/>
<path d="M41 142.8H43.6L44.1 142.5H41.3L41 142.8Z" fill="#8E4A98"/>
<path d="M40.7 143.1H43.2L43.6 142.8H41L40.7 143.1Z" fill="#8E4A99"/>
<path d="M40.4 143.4H42.7L43.2 143.1H40.7L40.4 143.4Z" fill="#8D4A99"/>
<path d="M40.3 143.5L40.1 143.7H42.1L42.6 143.4H40.4L40.3 143.5Z" fill="#8D4A99"/>
<path d="M39.9 143.9H41.6C41.8 143.8 42 143.7 42.2 143.6H40.2L39.9 143.9Z" fill="#8C4A9A"/>
<path d="M39.7 144.1C40.2 144.3 40.8 144.2 41.5 144H39.8L39.7 144.1Z" fill="#8C4A9A"/>
<path d="M111.4 74C111 73.8 110.8 73.7 110.8 73.7L110.5 74H111.4Z" fill="#F58879"/>
<path d="M110.4 74L110.2 74.2L110.1 74.3H112C111.8 74.2 111.6 74.1 111.4 74H110.4Z" fill="#F58879"/>
<path d="M110.1 74.3L109.8 74.6H112.6C112.4 74.5 112.2 74.4 112 74.3H110.1Z" fill="#F58979"/>
<path d="M109.8 74.6L109.7 74.7L109.5 74.9H113.2C113 74.8 112.8 74.7 112.6 74.6H109.8Z" fill="#F58A79"/>
<path d="M109.4 75L109.1 75.3H113.8C113.6 75.2 113.4 75.1 113.2 75H109.4Z" fill="#F58B79"/>
<path d="M109.1 75.3L108.8 75.6H114.4C114.2 75.5 114 75.4 113.8 75.3H109.1Z" fill="#F58C79"/>
<path d="M108.7 75.7L108.5 75.9L108.4 76H114.9C114.7 75.9 114.5 75.8 114.3 75.7H108.7Z" fill="#F58D79"/>
<path d="M108.4 76L108.1 76.3H115.6C115.4 76.2 115.2 76.1 115 76H108.4Z" fill="#F58D79"/>
<path d="M108 76.4L107.9 76.5L107.7 76.7H116.1C115.9 76.6 115.7 76.5 115.5 76.4H108Z" fill="#F68E79"/>
<path d="M107.7 76.7L107.4 77H116.7C116.5 76.9 116.3 76.8 116.1 76.7H107.7Z" fill="#F68F79"/>
<path d="M107.3 77L107 77.3H117.3C117.1 77.2 116.9 77.1 116.7 77H107.3Z" fill="#F69079"/>
<path d="M107 77.4L106.8 77.6L106.7 77.7H117.9C117.7 77.6 117.5 77.5 117.3 77.4H107Z" fill="#F69179"/>
<path d="M106.6 77.7L106.3 78H118.4C118.2 77.9 118 77.8 117.8 77.7H106.6Z" fill="#F69179"/>
<path d="M106.3 78.1L106.2 78.2L106 78.4H119.1C118.9 78.3 118.7 78.2 118.5 78.1H106.3Z" fill="#F69279"/>
<path d="M106 78.4L105.7 78.7H119.7C119.5 78.6 119.3 78.5 119.1 78.4H106Z" fill="#F69379"/>
<path d="M105.6 78.7L105.3 79H120.2C120 78.9 119.8 78.8 119.6 78.7H105.6Z" fill="#F69479"/>
<path d="M105.3 79.1L105.1 79.3L105 79.4H120.9C120.7 79.3 120.5 79.2 120.3 79.1H105.3Z" fill="#F69479"/>
<path d="M104.9 79.4L104.6 79.7H121.4C121.2 79.6 121 79.5 120.8 79.4H104.9Z" fill="#F69579"/>
<path d="M104.6 79.8L104.5 79.9L104.3 80.1H122C121.8 80 121.6 79.9 121.4 79.8H104.6Z" fill="#F69679"/>
<path d="M104.2 80.1L103.9 80.4H122.6C122.4 80.3 122.2 80.2 122 80.1H104.2Z" fill="#F79779"/>
<path d="M103.9 80.5L103.6 80.8H123.2C123 80.7 122.8 80.6 122.6 80.5H103.9Z" fill="#F79879"/>
<path d="M103.5 80.8L103.3 81L103.2 81.1H123.8C123.6 81 123.4 80.9 123.2 80.8H103.5Z" fill="#F79879"/>
<path d="M103.2 81.1L102.9 81.4H124.3C124.1 81.3 123.9 81.2 123.7 81.1H103.2Z" fill="#F79979"/>
<path d="M102.9 81.5L102.8 81.6L102.6 81.8H125C124.8 81.7 124.6 81.6 124.4 81.5H102.9Z" fill="#F79A79"/>
<path d="M102.5 81.8L102.2 82.1H125.6C125.4 82 125.2 81.9 125 81.8H102.5Z" fill="#F79B79"/>
<path d="M102.2 82.2L101.9 82.5H126.2C126 82.4 125.8 82.3 125.6 82.2H102.2Z" fill="#F79B79"/>
<path d="M101.8 82.5L101.6 82.7L101.5 82.8H126.7C126.5 82.7 126.3 82.6 126.1 82.5H101.8Z" fill="#F79C79"/>
<path d="M101.5 82.9L101.2 83.2H127.3C127.1 83.1 126.9 83 126.7 82.9H101.5Z" fill="#F79D79"/>
<path d="M101.1 83.2L101 83.3L100.8 83.5H127.9C127.7 83.4 127.5 83.3 127.3 83.2H101.1Z" fill="#F89E79"/>
<path d="M100.8 83.5L100.5 83.8H128.5C128.3 83.7 128.1 83.6 127.9 83.5H100.8Z" fill="#F89F79"/>
<path d="M100.4 83.9L100.1 84.2H129.1C128.9 84.1 128.7 84 128.5 83.9H100.4Z" fill="#F89F79"/>
<path d="M100.1 84.2L99.9 84.4L99.8 84.5H129.7C129.5 84.4 129.3 84.3 129.1 84.2H100.1Z" fill="#F8A079"/>
<path d="M99.8 84.6L99.5 84.9H130.3C130.1 84.8 129.9 84.7 129.7 84.6H99.8Z" fill="#F8A179"/>
<path d="M99.4 84.9L99.3 85L99.1 85.2H130.9C130.7 85.1 130.5 85 130.3 84.9H99.4Z" fill="#F8A279"/>
<path d="M99.1 85.2L98.8 85.5H131.6C131.4 85.4 131.2 85.3 131 85.2H99.1Z" fill="#F8A278"/>
<path d="M98.7 85.6L98.4 85.9H132.1C131.9 85.8 131.7 85.7 131.5 85.6H98.7Z" fill="#F8A378"/>
<path d="M98.4 85.9L98.2 86.1L98.1 86.2H132.8C132.6 86.1 132.4 86 132.2 85.9H98.4Z" fill="#F9A478"/>
<path d="M98 86.3L97.7 86.6H133.3C133.2 86.6 133.2 86.5 133.1 86.5C133 86.4 132.8 86.4 132.7 86.3H98Z" fill="#F9A578"/>
<path d="M97.7 86.6L97.6 86.7L97.4 86.9H133.9C133.7 86.8 133.6 86.7 133.4 86.6H97.7Z" fill="#F9A678"/>
<path d="M97.3 87L97 87.3H134.2C134.1 87.2 134 87.1 133.8 87H97.3Z" fill="#F9A678"/>
<path d="M97 87.3L96.7 87.6H134.5C134.4 87.5 134.3 87.4 134.2 87.3H97Z" fill="#F9A778"/>
<path d="M96.6 87.6L96.4 87.8L96.3 87.9H134.6C134.5 87.8 134.5 87.7 134.4 87.6H96.6Z" fill="#F9A878"/>
<path d="M96.3 88L96 88.3H134.8C134.8 88.2 134.7 88.1 134.7 88H96.3Z" fill="#F9A978"/>
<path d="M96 88.3L95.9 88.4L95.7 88.6H134.9C134.9 88.5 134.9 88.4 134.8 88.3H96Z" fill="#F9A978"/>
<path d="M95.6 88.7L95.4 88.9L95.6 89.1H134.8C134.8 89 134.8 88.9 134.8 88.8H95.6V88.7Z" fill="#F9AA78"/>
<path d="M95.6 89L95.7 89.1L95.9 89.3H134.7C134.7 89.2 134.8 89.1 134.8 89H95.6Z" fill="#F9AB78"/>
<path d="M96 89.3L96.3 89.6H134.6C134.7 89.5 134.7 89.4 134.7 89.3H96Z" fill="#FAAC78"/>
<path d="M96.3 89.7L96.6 90L96.7 90.1H134.4C134.5 90 134.5 89.9 134.6 89.8H96.3V89.7Z" fill="#FAAC78"/>
<path d="M96.6 90L96.8 90.2L96.9 90.3H134C134.1 90.2 134.2 90.1 134.3 90H96.6Z" fill="#FAAD78"/>
<path d="M97 90.4L97.1 90.5L97.3 90.7H133.7C133.8 90.6 134 90.5 134.1 90.4H97Z" fill="#FAAE78"/>
<path d="M97.3 90.7L97.6 91H133.3C133.5 90.9 133.6 90.8 133.8 90.7H97.3Z" fill="#FAAF78"/>
<path d="M97.7 91.1L98 91.4H132.7L133 91.3C133.1 91.2 133.2 91.2 133.3 91.1H97.7Z" fill="#FAAF78"/>
<path d="M98 91.4L98.3 91.6L98.4 91.7H132.1L132.7 91.4H98Z" fill="#FAB078"/>
<path d="M98.4 91.7L98.5 91.9L98.7 92.1H131.5L132.1 91.7H98.4Z" fill="#FAB178"/>
<path d="M98.7 92.1L98.8 92.2L99.1 92.4H130.9L131.5 92.1H98.7Z" fill="#FAB278"/>
<path d="M99.1 92.4V92.5L99.4 92.8H130.3L130.9 92.4H99.1Z" fill="#FBB277"/>
<path d="M99.4 92.8L99.7 93V93.1H129.7L130.3 92.8H99.4Z" fill="#FBB377"/>
<path d="M99.7 93.1L100 93.3L100.1 93.5H129.1L129.7 93.1H99.7Z" fill="#FBB477"/>
<path d="M100.1 93.5L100.2 93.6L100.4 93.8H128.5C128.6 93.7 128.7 93.7 128.8 93.6L129.1 93.4H100.1V93.5Z" fill="#FBB477"/>
<path d="M100.4 93.8L100.7 94.1H127.9C128.1 94 128.3 93.9 128.5 93.8H100.4Z" fill="#FBB577"/>
<path d="M100.8 94.1L101.1 94.4H127.3C127.5 94.3 127.7 94.2 127.9 94.1H100.8Z" fill="#FBB677"/>
<path d="M101.1 94.5L101.3 94.7L101.4 94.8H126.7C126.9 94.7 127.1 94.6 127.3 94.5H101.1Z" fill="#FBB777"/>
<path d="M101.5 94.8L101.7 95L101.9 95.2H126.3C126.5 95.1 126.7 95 126.9 94.9H101.5V94.8Z" fill="#FBB777"/>
<path d="M101.8 95.2L101.9 95.3L102.1 95.5H125.5C125.7 95.4 125.9 95.3 126.1 95.2H101.8Z" fill="#FCB877"/>
<path d="M102.2 95.5L102.5 95.8H125C125.2 95.7 125.4 95.6 125.6 95.5H102.2Z" fill="#FCB977"/>
<path d="M102.5 95.8L102.8 96.1L102.9 96.2H124.5C124.7 96.1 124.9 96 125.1 95.9H102.5V95.8Z" fill="#FCB977"/>
<path d="M102.9 96.2L103.1 96.4L103.2 96.5H123.8C124 96.4 124.2 96.3 124.4 96.2H102.9Z" fill="#FCBA77"/>
<path d="M103.2 96.5L103.3 96.6L103.5 96.8H123.2C123.4 96.7 123.6 96.6 123.8 96.5H103.2Z" fill="#FCBB77"/>
<path d="M103.5 96.9L103.8 97.2H122.5C122.7 97.1 122.9 97 123.1 96.9H103.5Z" fill="#FCBC76"/>
<path d="M103.9 97.2L104.2 97.5H122C122.2 97.4 122.4 97.3 122.6 97.2H103.9Z" fill="#FCBC76"/>
<path d="M104.2 97.6L104.4 97.8L104.5 97.9H121.4C121.6 97.8 121.8 97.7 122 97.6H104.2Z" fill="#FCBD76"/>
<path d="M104.6 97.9L104.8 98.1L105 98.3H120.9C121.1 98.2 121.3 98.1 121.5 98H104.6V97.9Z" fill="#FCBE76"/>
<path d="M104.9 98.2L105 98.3L105.2 98.5H120.2C120.4 98.4 120.6 98.3 120.8 98.2H104.9Z" fill="#FDBE76"/>
<path d="M105.3 98.6L105.6 98.9H119.7C119.9 98.8 120.1 98.7 120.3 98.6H105.3Z" fill="#FDBF76"/>
<path d="M105.6 98.9L105.9 99.2L106 99.3H119.1C119.3 99.2 119.5 99.1 119.7 99H105.6V98.9Z" fill="#FDC076"/>
<path d="M106 99.3L106.2 99.5L106.3 99.6H118.5C118.7 99.5 118.9 99.4 119.1 99.3H106Z" fill="#FDC076"/>
<path d="M106.3 99.6L106.4 99.7L106.6 99.9H117.8C118 99.8 118.2 99.7 118.4 99.6H106.3Z" fill="#FDC176"/>
<path d="M106.6 99.9L106.9 100.2H117.3C117.5 100.1 117.7 100 117.9 99.9H106.6Z" fill="#FDC176"/>
<path d="M107 100.3L107.3 100.6H116.7C116.9 100.5 117.1 100.4 117.3 100.3H107Z" fill="#FDC275"/>
<path d="M107.3 100.6L107.5 100.8L107.6 100.9H116C116.2 100.8 116.4 100.7 116.6 100.6H107.3Z" fill="#FDC375"/>
<path d="M107.7 101L107.9 101.2L108.1 101.4H115.6C115.8 101.3 116 101.2 116.2 101.1H107.7V101Z" fill="#FDC375"/>
<path d="M108 101.3L108.1 101.4L108.3 101.6H114.9C115.1 101.5 115.3 101.4 115.5 101.3H108Z" fill="#FDC475"/>
<path d="M108.4 101.7L108.7 102H114.3C114.5 101.9 114.7 101.8 114.9 101.7H108.4Z" fill="#FDC575"/>
<path d="M108.7 102L109 102.3L109.1 102.4H113.8C114 102.3 114.2 102.2 114.4 102.1H108.7V102Z" fill="#FEC575"/>
<path d="M109.1 102.3L109.3 102.5L109.4 102.6H113.1C113.3 102.5 113.5 102.4 113.7 102.3H109.1Z" fill="#FEC675"/>
<path d="M109.4 102.7L109.5 102.8L109.7 103H112.5C112.7 102.9 112.9 102.8 113.1 102.7H109.4Z" fill="#FEC675"/>
<path d="M109.7 103L110 103.3H111.9C112.1 103.2 112.3 103.1 112.5 103H109.7Z" fill="#FEC775"/>
<path d="M110.1 103.4L110.4 103.7H111.3L111.4 103.6C111.5 103.5 111.7 103.4 111.9 103.3H110.1V103.4Z" fill="#FEC775"/>
<path d="M111.4 103.7H110.5L110.7 103.9L110.8 104C110.8 104 110.9 103.9 111.2 103.8L111.4 103.7Z" fill="#FEC874"/>
</svg>
